<?xml version="1.0" encoding="UTF-8" standalone="no"?>
<svg
   xmlns:dc="http://purl.org/dc/elements/1.1/"
   xmlns:cc="http://creativecommons.org/ns#"
   xmlns:rdf="http://www.w3.org/1999/02/22-rdf-syntax-ns#"
   xmlns:svg="http://www.w3.org/2000/svg"
   xmlns="http://www.w3.org/2000/svg"
   xmlns:sodipodi="http://sodipodi.sourceforge.net/DTD/sodipodi-0.dtd"
   xmlns:inkscape="http://www.inkscape.org/namespaces/inkscape"
   width="6999.2598"
   height="7000.1753"
   viewBox="0 0 1851.8874 1852.1297"
   version="1.1"
   id="svg3117"
   inkscape:version="1.0.2 (e86c870879, 2021-01-15, custom)"
   sodipodi:docname="earth_clone.svg">
  <defs
     id="defs3111">
    <inkscape:path-effect
       effect="skeletal"
       id="path-effect2455"
       is_visible="true"
       lpeversion="1"
       pattern="m -1220.3061,791.45249 c -9.0168,0 -16.2758,7.2196 -16.2758,16.1869 0,8.9672 7.259,16.1863 16.2758,16.1863 h 297.89806 c 9.01683,0 16.27583,-7.2191 16.27583,-16.1863 0,-8.9673 -7.259,-16.1869 -16.27583,-16.1869 z m 556.33882,0 c -0.28177,0 -0.56148,0.01 -0.83966,0.021 -1.94722,0.097 -3.80217,0.5323 -5.50713,1.2471 -5.60201,2.3486 -9.58583,7.7201 -9.90806,14.0829 -0.014,0.2766 -0.0209,0.5553 -0.0209,0.8355 0,6.4453 3.75023,11.9869 9.20764,14.5946 2.13551,1.0203 4.53221,1.5918 7.0682,1.5918 h 297.89796 c 9.01683,0 16.27584,-7.2191 16.27584,-16.1864 0,-8.9672 -7.25901,-16.1868 -16.27584,-16.1868 z m 345.24599,0 c -9.01683,0 -16.2763,7.2191 -16.2763,16.1864 0,8.9673 7.25947,16.1864 16.2763,16.1864 h 297.89756 c 9.01682,0 16.2758304,-7.2191 16.2758304,-16.1864 0,-8.9673 -7.2590104,-16.1864 -16.2758304,-16.1864 z m -561.27089,1.4714 c -8.19711,0 -14.79629,6.5629 -14.79629,14.715 0,8.1521 6.59918,14.7145 14.79629,14.7145 h 63.1303 c 8.19712,0 14.79631,-6.5624 14.79631,-14.7145 0,-8.1521 -6.59919,-14.715 -14.79631,-14.715 z m -677.17482,0.4903 c -9.0168,0 -16.2758,7.2191 -16.2758,16.1864 0,8.9673 7.259,16.1864 16.2758,16.1864 h 146.976 c 9.0169,0 16.2759,-7.2191 16.2759,-16.1864 0,-8.9673 -7.259,-16.1864 -16.2759,-16.1864 z m 1575.03383,0 c -8.1970996,0 -14.7962796,6.5629 -14.7962796,14.715 0,8.1521 6.59918,14.715 14.7962796,14.715 H 80.9976 c 8.19712,0 14.79584,-6.5629 14.79584,-14.715 0,-8.1521 -6.59872,-14.715 -14.79584,-14.715 z m 149.96652,0.3168 c -9.01683,0 -16.27582,7.2191 -16.27582,16.1863 0,8.9673 7.25899,16.1864 16.27582,16.1864 h 146.97599 c 9.01683,0 16.27583,-7.2191 16.27583,-16.1864 0,-8.9672 -7.259,-16.1863 -16.27583,-16.1863 z m -2070.73935,1.6454 c -9.0168,0 -16.2758,7.2191 -16.2758,16.1864 0,8.9673 7.259,16.1864 16.2758,16.1864 h 297.8976 c 9.0168,0 16.2758,-7.2191 16.2758,-16.1864 0,-8.9673 -7.259,-16.1864 -16.2758,-16.1864 z"
       copytype="repeated_stretched"
       prop_scale="0.75858089"
       scale_y_rel="false"
       spacing="0"
       normal_offset="0"
       tang_offset="0"
       prop_units="false"
       vertical_pattern="false"
       hide_knot="false"
       fuse_tolerance="0" />
  </defs>
  <sodipodi:namedview
     id="base"
     pagecolor="#ffffff"
     bordercolor="#666666"
     borderopacity="1.0"
     inkscape:pageopacity="0.0"
     inkscape:pageshadow="2"
     inkscape:zoom="0.12374369"
     inkscape:cx="2954.2716"
     inkscape:cy="3119.4155"
     inkscape:document-units="px"
     inkscape:current-layer="layer1"
     inkscape:document-rotation="0"
     showgrid="false"
     inkscape:snap-global="true"
     units="px"
     fit-margin-top="0"
     fit-margin-left="0"
     fit-margin-right="0"
     fit-margin-bottom="0"
     inkscape:window-width="1566"
     inkscape:window-height="1033"
     inkscape:window-x="117"
     inkscape:window-y="0"
     inkscape:window-maximized="0"
     inkscape:snap-center="true" />
  <metadata
     id="metadata3114">
    <rdf:RDF>
      <cc:Work
         rdf:about="">
        <dc:format>image/svg+xml</dc:format>
        <dc:type
           rdf:resource="http://purl.org/dc/dcmitype/StillImage" />
        <dc:title />
      </cc:Work>
    </rdf:RDF>
  </metadata>
  <g
     inkscape:label="Layer 1"
     inkscape:groupmode="layer"
     id="layer1"
     transform="translate(959.77805,714.77768)">
    <rect
       style="opacity:0.9994;fill:none;fill-opacity:1;fill-rule:evenodd;stroke:#002055;stroke-width:5.27189;stroke-linejoin:round;stroke-miterlimit:4;stroke-dasharray:21.0876, 10.5438, 5.27189, 10.5438;stroke-dashoffset:0;stroke-opacity:1;paint-order:stroke fill markers"
       id="rect1064"
       width="682.64459"
       height="682.63971"
       x="-375.15659"
       y="-130.03268"
       ry="328.03342" />
    <rect
       style="opacity:0.9994;fill:#483e37;fill-opacity:1;fill-rule:evenodd;stroke:none;stroke-width:2.83912;stroke-linejoin:round;stroke-miterlimit:4;stroke-dasharray:68.1388, 2.83912;stroke-dashoffset:0;stroke-opacity:1;paint-order:stroke fill markers"
       id="rect1029"
       width="32.217823"
       height="31.059164"
       x="-237.12689"
       y="-71.231873"
       ry="15.529582"
       transform="matrix(0.98185628,0.18962658,-0.20466904,0.97883123,0,0)" />
    <rect
       style="opacity:0.9994;fill:#0066ff;fill-opacity:1;fill-rule:evenodd;stroke:none;stroke-width:2.96974;stroke-linejoin:round;stroke-miterlimit:4;stroke-dasharray:71.2739, 2.96974;stroke-dashoffset:0;stroke-opacity:1;paint-order:stroke fill markers"
       id="rect864"
       width="101.86387"
       height="98.298058"
       x="-329.52298"
       y="-34.563007"
       ry="49.149025"
       transform="matrix(0.98185628,0.18962658,-0.20466904,0.97883123,0,0)" />
    <rect
       style="opacity:0.9994;fill:#0055d4;fill-opacity:1;fill-rule:evenodd;stroke:none;stroke-width:2.50101;stroke-linejoin:round;stroke-miterlimit:4;stroke-dasharray:60.0242, 2.50101;stroke-dashoffset:0;stroke-opacity:1;paint-order:stroke fill markers"
       id="rect864-7"
       width="85.786041"
       height="82.783051"
       x="-324.93408"
       y="-31.227224"
       ry="41.391525"
       transform="matrix(0.98185628,0.18962658,-0.20466904,0.97883123,0,0)" />
    <rect
       style="opacity:0.9994;fill:#0044aa;fill-opacity:1;fill-rule:evenodd;stroke:none;stroke-width:1.81656;stroke-linejoin:round;stroke-miterlimit:4;stroke-dasharray:43.5975, 1.81656;stroke-dashoffset:0;stroke-opacity:1;paint-order:stroke fill markers"
       id="rect864-7-8"
       width="61.669312"
       height="60.751747"
       x="-319.14609"
       y="-25.952116"
       ry="30.375872"
       transform="matrix(0.98185628,0.18962658,-0.20466904,0.97883123,0,0)" />
    <rect
       style="opacity:0.9994;fill:#003380;fill-opacity:1;fill-rule:evenodd;stroke:none;stroke-width:1.01511;stroke-linejoin:round;stroke-miterlimit:4;stroke-dasharray:24.3627, 1.01511;stroke-dashoffset:0;stroke-opacity:1;paint-order:stroke fill markers"
       id="rect864-7-8-1"
       width="34.980133"
       height="33.445332"
       x="-311.9111"
       y="-20.211557"
       ry="16.722666"
       transform="matrix(0.98185628,0.18962658,-0.20466904,0.97883123,0,0)" />
    <path
       id="path866"
       style="fill:#00aa00;stroke:#000000;stroke-width:0.156342px;stroke-linecap:butt;stroke-linejoin:miter;stroke-opacity:1"
       d="m -242.87697,-75.501606 c -0.009,0.12101 -0.0175,0.24214 -0.028,0.363 -0.0812,0.93246 -0.21513,1.87036 -0.55803,2.74611 -0.34287,0.87577 -0.91114,1.69229 -1.72081,2.21118 -0.85676,0.5491 -1.9289,0.72845 -2.95485,0.64884 -1.02599,-0.0796 -2.01532,-0.40176 -2.96324,-0.78735 -0.94791,-0.38562 -1.86649,-0.83709 -2.82574,-1.19583 -0.95926,-0.35875 -1.97192,-0.62509 -3.00122,-0.61782 -1.22446,0.009 -2.44314,0.418 -3.40416,1.1483 -0.96103,0.7303 -1.65787,1.7774 -1.94028,2.92364 -0.28238,1.14625 -0.14754,2.38407 0.37992,3.44689 0.52744,1.06284 1.44449,1.9429 2.55282,2.44328 0.88156,0.39799 1.86022,0.55552 2.83111,0.62955 0.97088,0.074 1.9475,0.0687 2.91668,0.16098 0.96919,0.0923 1.94382,0.28767 2.7996,0.73467 0.85579,0.44699 1.58645,1.17038 1.86978,2.06666 0.14763,0.46702 0.17046,0.96841 0.08,1.44881 -0.0901,0.48047 -0.29276,0.93954 -0.57672,1.34427 -0.56784,0.80948 -1.4527,1.38679 -2.41394,1.70063 -0.93224,0.30438 -1.93863,0.37295 -2.91609,0.26133 -0.97746,-0.1116 -1.92743,-0.39999 -2.82419,-0.79013 -1.79355,-0.78027 -3.36408,-1.95434 -4.96474,-3.05633 -1.60065,-1.102 -3.28552,-2.15796 -5.18689,-2.64834 -0.9507,-0.24519 -1.94845,-0.34325 -2.92505,-0.2243 -0.97661,0.11896 -1.93148,0.46032 -2.71371,1.03542 -0.94851,0.69735 -1.61511,1.7228 -1.92667,2.83127 -0.31149,1.10849 -0.27793,2.29481 0.0209,3.40629 0.59782,2.22295 2.20565,4.081338 4.03958,5.550689 0.69571,0.557418 1.43424,1.074655 2.03338,1.727691 0.29959,0.326521 0.56275,0.686515 0.75244,1.081951 0.1897,0.395437 0.30453,0.827381 0.30402,1.262949 -7.9e-4,0.699476 -0.29785,1.374428 -0.70992,1.95092 -0.41199,0.576493 -0.93626,1.068689 -1.45038,1.563512 -0.51416,0.494813 -1.02619,1.001522 -1.40621,1.598017 -0.37999,0.596484 -0.62236,1.297406 -0.54693,1.993073 0.0449,0.414364 0.20211,0.815377 0.44193,1.162205 0.23984,0.346827 0.5612,0.639576 0.92741,0.861877 0.73243,0.444602 1.63111,0.599162 2.4937,0.522542 0.86256,-0.07667 1.6922,-0.372895 2.45328,-0.771067 0.76109,-0.398161 1.45954,-0.897321 2.14643,-1.40525 1.44576,-1.069129 2.85836,-2.189835 4.42102,-3.094012 1.56264,-0.904167 3.30176,-1.591483 5.12164,-1.69885 1.76154,-0.103927 3.50289,0.336066 5.25834,0.509962 0.87774,0.08692 1.76901,0.106819 2.63807,-0.04044 0.86911,-0.147195 1.71842,-0.468551 2.39894,-1.00915 0.66842,-0.53098 1.15006,-1.252206 1.50588,-2.012558 0.35583,-0.760352 0.59464,-1.565406 0.84992,-2.362246 0.25523,-0.796851 0.53055,-1.59416 0.95243,-2.322594 0.42188,-0.728444 1.00188,-1.390699 1.75427,-1.804819 0.96506,-0.531175 2.14395,-0.612854 3.23787,-0.422803 1.09391,0.190051 2.12147,0.631997 3.1207,1.100343 0.99922,0.468345 1.98888,0.969155 3.04941,1.289427 0.99679,0.301021 2.07431,0.435666 3.09021,0.214956 -2.13456,-10.781015 -7.9845,-20.524545 -16.48391,-27.677405 z" />
    <path
       id="path870"
       style="fill:#ffd42a;stroke:#000000;stroke-width:0.156342px;stroke-linecap:butt;stroke-linejoin:miter;stroke-opacity:1"
       d="m -226.91152,-39.758017 c -1.21548,-0.267482 -2.5058,-0.258926 -3.69664,0.09747 -1.19082,0.35637 -2.27565,1.069851 -2.99171,2.052162 -0.49956,0.685294 -0.8124,1.483346 -1.01116,2.298118 -0.19866,0.814793 -0.28771,1.650085 -0.37153,2.483052 -0.16762,1.665946 -0.34221,3.406967 -1.28112,4.816369 -0.67688,1.016056 -1.72069,1.785969 -2.88661,2.231314 -1.1659,0.445355 -2.44868,0.575409 -3.69719,0.459956 -2.49699,-0.230887 -4.79299,-1.407195 -6.8688,-2.761454 -1.7109,-1.116213 -3.38887,-2.397876 -5.40043,-2.857294 -1.00577,-0.229704 -2.08342,-0.237069 -3.05651,0.09918 -0.97306,0.33625 -1.82908,1.038645 -2.21624,1.960901 -0.329,0.783743 -0.30424,1.683124 -0.0144,2.480835 0.28979,0.797719 0.83147,1.497048 1.48543,2.061167 1.3079,1.128236 3.0121,1.710734 4.64776,2.327623 1.97112,0.743406 3.9486,1.599658 5.48831,2.997369 0.76985,0.698861 1.41961,1.529718 1.83619,2.465862 0.41656,0.936144 0.59341,1.979995 0.43415,2.986909 -0.13441,0.849493 -0.50181,1.653063 -0.97248,2.383489 -0.47068,0.730427 -1.04408,1.3939611 -1.62431,2.0474251 -1.16045,1.306939 -2.39391,2.651295 -2.84485,4.31427 -0.46609,1.718833 -0.007,3.594841 0.99076,5.08894996 0.60301,0.90288804 1.38813,1.67580904 2.27253,2.33354204 11.07853,-6.934027 19.35243,-17.9964231 22.17639,-31.5020811 0.73281,-3.504646 1.05749,-6.993487 1.0121,-10.423026 -0.45467,-0.184718 -0.9242,-0.335283 -1.40957,-0.442093 z" />
    <path
       id="path874"
       style="fill:#88aa00;stroke:#000000;stroke-width:0.156342px;stroke-linecap:butt;stroke-linejoin:miter;stroke-opacity:1"
       d="m -302.82597,-64.496616 c -0.31502,-0.0566 -0.63617,-0.0856 -0.95595,-0.0905 -0.85276,-0.0132 -1.70004,0.13603 -2.5279,0.33355 -1.65572,0.39504 -3.3061,0.99018 -5.00873,0.89157 -1.24936,-0.0724 -2.45367,-0.52204 -3.51318,-1.1627 -1.05948,-0.64067 -1.98395,-1.46817 -2.84217,-2.34428 -0.10329,-0.10544 -0.20407,-0.21392 -0.30602,-0.32091 -4.09287,5.49435 -7.06972,11.90246 -8.54979,18.980919 -5.48197,26.217572 11.66974,51.5751131 38.60161,57.4881871 0.23594,-0.247862 0.44708,-0.516749 0.62582,-0.805995 0.4836,-0.78262 0.7225,-1.715709 0.59885,-2.618167 -0.12498,-0.912401 -0.61072,-1.755164 -1.25627,-2.434198 -0.64555,-0.679034 -1.44547,-1.206224 -2.27636,-1.662205 -1.66175,-0.91197104 -3.51264,-1.58871904 -4.85915,-2.896029 -1.42353,-1.382075 -2.11185,-3.310189 -2.55209,-5.209335 -0.44026,-1.899146 -0.682,-3.8550951 -1.41447,-5.6687231 -0.71688,-1.774992 -1.90069,-3.37381 -3.41366,-4.601629 -1.51295,-1.227807 -3.35211,-2.081705 -5.29398,-2.452119 -1.98846,-0.379352 -4.04681,-0.256426 -6.05006,-0.555329 -1.00161,-0.149471 -1.99507,-0.407782 -2.88857,-0.867952 -0.89351,-0.460151 -1.68551,-1.132212 -2.17359,-1.986637 -0.62014,-1.085604 -0.70909,-2.415563 -0.35351,-3.606453 0.35555,-1.190881 1.13197,-2.244118 2.10562,-3.055443 1.94731,-1.622658 4.56357,-2.261443 7.10108,-2.688212 1.92196,-0.32325 3.93667,-0.581854 5.5502,-1.637474 0.80677,-0.527806 1.49008,-1.257695 1.84163,-2.133139 0.35161,-0.875443 0.34517,-1.90108 -0.12115,-2.725149 -0.24228,-0.428185 -0.59972,-0.791967 -1.01507,-1.071268 -0.41537,-0.27931 -0.88755,-0.47565 -1.37723,-0.601417 -0.97933,-0.251513 -2.01271,-0.222487 -3.02162,-0.126861 -1.00888,0.09561 -2.01409,0.255987 -3.02783,0.261134 -1.01372,0.0049 -2.05474,-0.155554 -2.92415,-0.656697 -0.69331,-0.399616 -1.25082,-1.005634 -1.60865,-1.702785 -0.3578,-0.697151 -0.51878,-1.482574 -0.496,-2.259881 0.0455,-1.554615 0.81948,-3.034923 1.91615,-4.178064 1.09664,-1.14314 2.49867,-1.977787 3.95468,-2.65434 1.45601,-0.676559 2.97966,-1.207869 4.45877,-1.836349 1.14398,-0.48609 2.26684,-1.03363 3.2765,-1.74361 1.00967,-0.70997 1.90683,-1.58968 2.51212,-2.64244 0.6053,-1.05273 0.90544,-2.28704 0.72072,-3.47657 -0.18486,-1.18956 -0.88301,-2.32051 -1.94931,-2.94839 -0.45454,-0.26765 -0.96218,-0.43955 -1.48717,-0.53405 z" />
    <path
       id="path878"
       style="fill:#e3e2db;stroke:#000000;stroke-width:0.156342px;stroke-linecap:butt;stroke-linejoin:miter;stroke-opacity:1"
       d="m -277.58776,-87.624706 c -11.39785,0.20633 -22.1466,4.08462 -30.73686,10.66864 0.78339,1.00573 1.79358,1.84685 2.95608,2.41912 1.8142,0.89306 3.94471,1.11798 5.95377,0.78663 2.00905,-0.33135 3.89914,-1.19822 5.54278,-2.35832 1.96716,-1.38848 3.62806,-3.20892 5.81545,-4.24859 1.85266,-0.88059 3.95209,-1.13642 5.90512,-1.78583 0.97652,-0.32469 1.92688,-0.75434 2.7301,-1.37958 0.80324,-0.62526 1.45437,-1.45892 1.72922,-2.41697 0.1571,-0.54762 0.18435,-1.12212 0.10434,-1.6851 z" />
    <path
       id="path882"
       style="fill:#e3e2db;stroke:#000000;stroke-width:0.156342px;stroke-linecap:butt;stroke-linejoin:miter;stroke-opacity:1"
       d="m -254.07312,1.6383471 c -1.79889,-0.390045 -3.73373,-0.184416 -5.53069,0.286694 -3.11289,0.816119 -5.9925,2.387171 -9.16132,2.970637 -3.20741,0.590586 -6.57618,0.141872 -9.72771,0.965395 -1.71911,0.449212 -3.36248,1.299993 -4.50503,2.614955 -0.39833,0.458452 -0.73063,0.971383 -0.97722,1.519262 12.0334,1.7207609 23.7717,-0.750918 33.53854,-6.338565 -0.64848,-0.725562 -1.49482,-1.283849 -2.41625,-1.649204 -0.39729,-0.157529 -0.8052,-0.279164 -1.22032,-0.369174 z" />
    <path
       id="path886"
       style="fill:#00aa00;stroke:#000000;stroke-width:0.156342px;stroke-linecap:butt;stroke-linejoin:miter;stroke-opacity:1"
       d="m -234.56387,-35.490276 c -0.0156,0.06007 -0.0323,0.119799 -0.0469,0.180021 -0.19867,0.814792 -0.2877,1.650084 -0.37154,2.483052 -0.16761,1.665945 -0.34219,3.406967 -1.28111,4.816369 -0.45871,0.688566 -1.08625,1.263632 -1.80575,1.701701 1.54969,2.517851 3.79978,4.638624 5.54419,7.064453 0.61614,0.856827 1.17236,1.764296 1.60221,2.719134 1.66397,-3.203936 2.98829,-6.629149 3.91467,-10.244626 -0.34005,-0.505303 -0.67158,-1.015646 -0.98115,-1.538841 -1.08778,-1.838377 -1.93481,-3.85279 -3.45323,-5.382763 -0.75923,-0.764982 -1.68801,-1.395485 -2.73993,-1.703459 -0.12535,-0.03673 -0.25273,-0.06827 -0.38119,-0.09504 z m -13.53819,25.17418 c -0.31997,0.4075381 -0.66188,0.8000241 -1.00681,1.1885161 -1.16045,1.30693 -2.39393,2.651285 -2.84486,4.314261 -0.0185,0.06837 -0.0329,0.137457 -0.0493,0.206146 0.64847,0.433196 1.36117,0.794272 2.06814,1.131685 1.97109,0.940744 3.99775,1.78548 5.95153,2.75477196 2.03522,-1.62023596 3.94371,-3.39422096 5.70311,-5.31046896 -0.0165,-7.81e-4 -0.0327,-9.77e-4 -0.0491,-0.002 -2.8332,-0.19472 -5.46261,-1.490329 -7.80936,-3.028955 -0.647,-0.424199 -1.29022,-0.870717 -1.96384,-1.2538961 z" />
    <path
       id="rect976"
       style="opacity:0.9994;fill:#ffcc00;fill-opacity:1;fill-rule:evenodd;stroke:none;stroke-width:2.41456;stroke-linejoin:round;stroke-miterlimit:4;stroke-dasharray:57.949, 2.41456;stroke-dashoffset:0;stroke-opacity:1;paint-order:stroke fill markers"
       d="m -202.58795,-111.17836 c -2.37096,-0.4579 -4.71933,-0.36841 -6.90536,0.17716 5.78622,2.37245 9.22624,8.36451 7.9358,14.536034 l -0.18163,0.86859 c -1.33424,6.38105 -7.25568,10.70751 -13.80547,10.45054 1.90731,1.53535 4.23381,2.64724 6.85409,3.15329 l 0.24293,0.0469 c 8.34461,1.6116 16.41235,-3.54721 18.08923,-11.56695 l 0.0488,-0.23348 c 1.6769,-8.019734 -3.69085,-15.773584 -12.03547,-17.385194 z" />
    <path
       id="rect978"
       style="opacity:0.9994;fill:#aa8800;fill-opacity:1;fill-rule:evenodd;stroke:none;stroke-width:2.53051;stroke-linejoin:round;stroke-miterlimit:4;stroke-dasharray:60.7322, 2.53051;stroke-dashoffset:0;stroke-opacity:1;paint-order:stroke fill markers"
       d="m -197.29839,-107.39069 c -2.22166,-0.42908 -4.39275,0.33684 -5.80269,1.83889 1.59111,2.64595 2.22219,5.841084 1.54357,9.086634 l -0.0116,0.0556 c 0.55716,0.30376 1.17302,0.53023 1.83695,0.65846 3.35477,0.6479 6.59829,-1.42613 7.27244,-4.650284 0.67415,-3.22414 -1.4839,-6.34138 -4.83865,-6.98929 z" />
    <path
       id="rect978-9"
       style="opacity:0.9994;fill:#aa8800;fill-opacity:1;fill-rule:evenodd;stroke:none;stroke-width:1.17083;stroke-linejoin:round;stroke-miterlimit:4;stroke-dasharray:28.1, 1.17083;stroke-dashoffset:0;stroke-opacity:1;paint-order:stroke fill markers"
       d="m -201.7658,-95.476446 c -0.40388,1.84381 -1.19098,3.51352 -2.26622,4.94697 0.0333,0.008 0.0666,0.0153 0.1003,0.0219 1.5522,0.29978 3.05287,-0.65981 3.3648,-2.15158 0.23466,-1.12227 -0.27246,-2.21638 -1.19891,-2.81724 z" />
    <rect
       style="opacity:0.9994;fill:#aa8800;fill-opacity:1;fill-rule:evenodd;stroke:none;stroke-width:0.660723;stroke-linejoin:round;stroke-miterlimit:4;stroke-dasharray:15.8574, 0.660723;stroke-dashoffset:0;stroke-opacity:1;paint-order:stroke fill markers"
       id="rect978-9-8"
       width="3.3138297"
       height="3.0171762"
       x="-211.99695"
       y="-50.732845"
       ry="1.5085881"
       transform="matrix(0.98185628,0.18962658,-0.20466904,0.97883123,0,0)" />
    <path
       id="rect978-9-2"
       style="opacity:0.9994;fill:#806600;fill-opacity:1;fill-rule:evenodd;stroke:none;stroke-width:1.77473;stroke-linejoin:round;stroke-miterlimit:4;stroke-dasharray:42.5935, 1.77473;stroke-dashoffset:0;stroke-opacity:1;paint-order:stroke fill markers"
       d="m -196.95597,-106.33046 c -2.30327,-0.44483 -4.53018,0.97914 -4.99303,3.19273 -0.003,0.0149 -0.005,0.0298 -0.008,0.0446 0.32867,0.96457 0.54004,1.97313 0.62512,3.0074 0.60008,0.872524 1.54889,1.523054 2.70507,1.746354 l 0.36155,0.0698 c 2.30328,0.44484 4.53012,-0.9789 4.99298,-3.192494 0.46285,-2.21359 -1.0188,-4.3538 -3.32207,-4.79864 z" />
  </g>
</svg>
