<?xml version="1.0" encoding="UTF-8" standalone="no"?>
<svg
   xmlns:dc="http://purl.org/dc/elements/1.1/"
   xmlns:cc="http://creativecommons.org/ns#"
   xmlns:rdf="http://www.w3.org/1999/02/22-rdf-syntax-ns#"
   xmlns:svg="http://www.w3.org/2000/svg"
   xmlns="http://www.w3.org/2000/svg"
   xmlns:sodipodi="http://sodipodi.sourceforge.net/DTD/sodipodi-0.dtd"
   xmlns:inkscape="http://www.inkscape.org/namespaces/inkscape"
   width="6999.2593"
   height="7000.1753"
   viewBox="0 0 1851.8873 1852.1298"
   version="1.1"
   id="svg5066"
   inkscape:version="1.0.2 (e86c870879, 2021-01-15, custom)"
   sodipodi:docname="first_level.svg">
  <defs
     id="defs5060">
    <inkscape:path-effect
       effect="skeletal"
       id="path-effect2424"
       is_visible="true"
       lpeversion="1"
       pattern="m -213.03528,944.22793 c -9.25322,0 -16.70254,7.3848 -16.70254,16.5574 0,9.1726 7.44932,16.5569 16.70254,16.5569 H 92.67254 c 9.25323,0 16.70255,-7.3843 16.70255,-16.5569 0,-9.1726 -7.44932,-16.5574 -16.70255,-16.5574 z m 514.86184,0.1329 c -8.41205,0 -15.18424,6.7132 -15.18424,15.0518 0,8.3386 6.77219,15.0519 15.18424,15.0519 h 64.78597 c 8.41199,0 15.18372,-6.7133 15.18372,-15.0519 0,-8.3386 -6.77173,-15.0518 -15.18372,-15.0518 z m -708.17054,1.5304 c -9.25324,0 -16.70257,7.3843 -16.70257,16.5568 0,9.1726 7.44933,16.557 16.70257,16.557 h 150.82939 c 9.25323,0 16.70254,-7.3844 16.70254,-16.557 0,-9.1725 -7.44931,-16.5568 -16.70254,-16.5568 z m -441.8056,1.4923 c -9.25323,0 -16.70254,7.3845 -16.70254,16.557 0,9.1725 7.44931,16.5569 16.70254,16.5569 h 150.82939 c 9.25323,0 16.70255,-7.3844 16.70255,-16.5569 0,-9.1725 -7.44932,-16.557 -16.70255,-16.557 z m -104.77958,0.8005 c -8.41202,0 -15.18423,6.713 -15.18423,15.0517 0,8.3387 6.77221,15.0518 15.18423,15.0518 h 64.78594 c 8.41203,0 15.18423,-6.7131 15.18423,-15.0518 0,-8.3387 -6.7722,-15.0517 -15.18423,-15.0517 z m 292.04191,0 c -8.41203,0 -15.18423,6.713 -15.18423,15.0517 0,8.3387 6.7722,15.0518 15.18423,15.0518 h 64.78545 c 8.41203,0 15.18423,-6.7131 15.18423,-15.0518 0,-8.3387 -6.7722,-15.0517 -15.18423,-15.0517 z m -992.37785,0.8826 c -9.2532,0 -16.7025,7.3844 -16.7025,16.5571 0,9.1724 7.4493,16.5568 16.7025,16.5568 h 305.708 c 9.2533,0 16.7026,-7.3844 16.7026,-16.5568 0,-9.1727 -7.4493,-16.5571 -16.7026,-16.5571 z m 403.9994,0.5366 c -8.4121,0 -15.1842,6.7131 -15.1842,15.0518 0,8.3386 6.7721,15.0517 15.1842,15.0517 h 64.7859 c 8.4121,0 15.1842,-6.7131 15.1842,-15.0517 0,-8.3387 -6.7721,-15.0518 -15.1842,-15.0518 z m -582.6523,2.8379 c -8.412,0 -15.1837,6.7132 -15.1837,15.0519 0,8.3386 6.7717,15.0518 15.1837,15.0518 h 64.7859 c 8.412,0 15.1842,-6.7132 15.1842,-15.0518 0,-8.3387 -6.7722,-15.0519 -15.1842,-15.0519 z"
       copytype="repeated"
       prop_scale="0.61531879"
       scale_y_rel="false"
       spacing="0.2"
       normal_offset="0"
       tang_offset="0"
       prop_units="true"
       vertical_pattern="false"
       hide_knot="false"
       fuse_tolerance="0" />
    <inkscape:path-effect
       effect="skeletal"
       id="path-effect2455"
       is_visible="true"
       lpeversion="1"
       pattern="m -1232.5849,546.14743 c -9.0168,0 -16.2758,7.2196 -16.2758,16.1868 0,8.9673 7.259,16.1864 16.2758,16.1864 h 297.89805 c 9.01683,0 16.27583,-7.2191 16.27583,-16.1864 0,-8.9672 -7.259,-16.1868 -16.27583,-16.1868 z m 556.33881,0 c -0.28177,0 -0.56148,0.01 -0.83966,0.021 -1.94722,0.098 -3.80217,0.5323 -5.50713,1.2471 -5.60201,2.3486 -9.58583,7.72 -9.90806,14.0829 -0.014,0.2766 -0.0209,0.5553 -0.0209,0.8355 0,6.4452 3.75023,11.9869 9.20764,14.5945 2.13551,1.0204 4.53221,1.5919 7.0682,1.5919 h 297.89797 c 9.01683,0 16.27584,-7.2191 16.27584,-16.1864 0,-8.9673 -7.25901,-16.1869 -16.27584,-16.1869 z m 345.24599,0 c -9.01683,0 -16.2763,7.2191 -16.2763,16.1864 0,8.9672 7.25947,16.1863 16.2763,16.1863 h 297.897562 c 9.01682,0 16.27583,-7.2191 16.27583,-16.1863 0,-8.9673 -7.25901,-16.1864 -16.27583,-16.1864 z m -561.27089,1.4714 c -8.19711,0 -14.79629,6.5629 -14.79629,14.715 0,8.152 6.59918,14.7145 14.79629,14.7145 h 63.1303 c 8.19712,0 14.79631,-6.5625 14.79631,-14.7145 0,-8.1521 -6.59919,-14.715 -14.79631,-14.715 z m -677.17491,0.4903 c -9.0168,0 -16.2758,7.2191 -16.2758,16.1864 0,8.9672 7.259,16.1863 16.2758,16.1863 h 146.9761 c 9.0169,0 16.2758,-7.2191 16.2758,-16.1863 0,-8.9673 -7.2589,-16.1864 -16.2758,-16.1864 z m 1575.0339217,0 c -8.1971,0 -14.79628,6.5629 -14.79628,14.715 0,8.152 6.59918,14.7149 14.79628,14.7149 H 68.718792 c 8.19712,0 14.79584,-6.5629 14.79584,-14.7149 0,-8.1521 -6.59872,-14.715 -14.79584,-14.715 z m 149.9665183,0.3167 c -9.01683,0 -16.27582,7.2191 -16.27582,16.1864 0,8.9673 7.25899,16.1864 16.27582,16.1864 h 146.97599 c 9.01683,0 16.27583,-7.2191 16.27583,-16.1864 0,-8.9673 -7.259,-16.1864 -16.27583,-16.1864 z m -2070.73944,1.6455 c -9.0168,0 -16.2758,7.2191 -16.2758,16.1864 0,8.9672 7.259,16.1863 16.2758,16.1863 h 297.8976 c 9.0168,0 16.2758,-7.2191 16.2758,-16.1863 0,-8.9673 -7.259,-16.1864 -16.2758,-16.1864 z"
       copytype="repeated_stretched"
       prop_scale="0.75858089"
       scale_y_rel="false"
       spacing="0"
       normal_offset="0"
       tang_offset="0"
       prop_units="false"
       vertical_pattern="false"
       hide_knot="false"
       fuse_tolerance="0" />
  </defs>
  <sodipodi:namedview
     id="base"
     pagecolor="#ffffff"
     bordercolor="#666666"
     borderopacity="1.0"
     inkscape:pageopacity="0.0"
     inkscape:pageshadow="2"
     inkscape:zoom="0.0875"
     inkscape:cx="3361.1878"
     inkscape:cy="3636.6348"
     inkscape:document-units="px"
     inkscape:current-layer="layer1"
     inkscape:document-rotation="0"
     showgrid="false"
     units="px"
     fit-margin-top="0"
     fit-margin-left="0"
     fit-margin-right="0"
     fit-margin-bottom="0"
     inkscape:window-width="1566"
     inkscape:window-height="1033"
     inkscape:window-x="32"
     inkscape:window-y="0"
     inkscape:window-maximized="0"
     inkscape:snap-center="true" />
  <metadata
     id="metadata5063">
    <rdf:RDF>
      <cc:Work
         rdf:about="">
        <dc:format>image/svg+xml</dc:format>
        <dc:type
           rdf:resource="http://purl.org/dc/dcmitype/StillImage" />
        <dc:title />
      </cc:Work>
    </rdf:RDF>
  </metadata>
  <g
     inkscape:label="Layer 1"
     inkscape:groupmode="layer"
     id="layer1"
     transform="translate(972.05679,960.08274)">
    <path
       style="font-variation-settings:normal;opacity:0.9994;vector-effect:none;fill:#ffe6d5;fill-opacity:1;fill-rule:evenodd;stroke:none;stroke-width:0.883132;stroke-linecap:butt;stroke-linejoin:round;stroke-miterlimit:4;stroke-dasharray:0.883132, 42.3902;stroke-dashoffset:0;stroke-opacity:1;paint-order:markers fill stroke;stop-color:#000000"
       id="rect2407"
       width="1594.6681"
       height="1617.658"
       x="-843.17664"
       y="-834.70087"
       ry="805.99084"
       sodipodi:type="rect"
       inkscape:path-effect="#path-effect2424"
       d="m 680.79714,338.17131 c 4.104,-8.44427 3.12162,-17.21932 -2.0048,-19.58007 -5.12642,-2.36075 -12.31928,2.44071 -16.32062,10.67375 -38.02848,78.2464 -88.92582,150.26042 -150.10597,212.10202 -9.71177,9.8172 -19.68323,19.3783 -29.899,28.6716 -6.77118,6.15976 -9.35125,14.41449 -5.64129,18.66811 3.70997,4.25361 12.40697,2.72325 19.3529,-3.59561 10.47941,-9.53335 20.70883,-19.34197 30.67287,-29.4142 62.76443,-63.44973 114.94174,-137.27162 153.94591,-217.5256 z m -358.4429,367.64302 c 7.58677,-3.91171 11.66262,-10.82587 9.22438,-15.33974 -2.43824,-4.51387 -10.30079,-4.94332 -17.71204,-1.12211 -16.84692,8.68621 -34.00881,16.75932 -51.4461,24.18932 -2.25529,0.96119 -4.51517,1.91151 -6.77954,2.85093 -7.70093,3.19491 -12.4482,9.47529 -10.57573,14.25163 1.87247,4.77633 9.78535,6.1285 17.67289,2.8572 2.31924,-0.96188 4.63395,-1.93493 6.94405,-2.91912 17.85564,-7.61015 35.4262,-15.8762 52.67209,-24.76811 z M 743.51218,152.98018 c 1.97531,-9.16349 -1.06309,-17.44257 -6.60325,-18.51922 -5.54023,-1.07668 -11.38695,5.28764 -13.31335,14.22651 -10.23648,47.49928 -24.74139,94.06263 -43.44029,138.89092 -0.42081,1.00911 -0.84372,2.01733 -1.26874,3.02467 -3.55361,8.42253 -2.42499,16.98848 2.72792,19.29094 5.15285,2.30242 12.39888,-2.72948 16.04484,-11.37 0.43606,-1.03342 0.86997,-2.06775 1.30172,-3.10299 19.17957,-46.00132 34.05477,-93.74796 44.55115,-142.44083 z M 719.82167,-288.5084 c -2.92844,-8.8946 -9.737,-14.48965 -15.05898,-12.61394 -5.32197,1.87572 -7.1456,10.3123 -4.2903,18.98454 15.51399,47.11971 26.61583,95.70476 33.22596,144.90084 1.21657,9.05439 6.54557,15.85097 12.15378,15.21252 5.60822,-0.63844 9.28873,-8.64559 8.0415,-17.9263 -6.77673,-50.42577 -18.16057,-100.22975 -34.07196,-148.55766 z m -40.11228,-98.06714 c -3.69593,-7.66526 -10.48769,-11.90828 -15.06634,-9.59295 -4.57866,2.31532 -5.22962,10.14723 -1.61804,17.63758 6.1968,12.85202 12.04653,25.87077 17.53775,39.03881 2.72513,6.53322 5.36123,13.10326 7.90807,19.70764 2.99141,7.75721 9.14683,12.64065 13.9676,10.88651 4.82077,-1.75415 6.37428,-9.60949 3.31311,-17.54961 -2.60622,-6.7601 -5.30384,-13.48566 -8.09262,-20.1742 -5.62103,-13.47793 -11.60802,-26.80166 -17.94953,-39.95378 z m 77.79682,283.30675 c -0.76024,-8.47394 -5.61972,-14.83782 -10.72127,-14.28547 -5.10155,0.55234 -8.4728,7.65464 -7.72943,15.94074 1.90837,21.271882 2.98307,42.618555 3.21781,63.972324 0.0368,3.348757 0.71985,6.433817 1.85536,8.931174 1.24355,2.75977 3.04518,4.798579 5.13642,5.67627 0.74062,0.309996 1.51755,0.475652 2.31892,0.476115 0.80141,4.64e-4 1.57848,-0.164329 2.31918,-0.476115 2.09123,-0.877691 3.89285,-2.9165 5.13638,-5.67627 1.13639,-2.545022 1.79377,-5.705617 1.7562,-9.134459 -0.2393,-21.839569 -1.33793,-43.670239 -3.28957,-65.424309 z M 148.21506,-819.85047 c -9.08053,-2.24786 -17.43115,0.54704 -18.67192,6.05259 -1.24073,5.50538 4.92633,11.53318 13.77674,13.72367 40.0472,9.91177 79.30023,22.98533 117.23933,39.15639 54.40747,23.18141 106.12504,52.66932 153.92809,87.53473 7.36822,5.37406 15.95149,6.22386 19.37171,1.73411 3.42034,-4.48991 0.19361,-12.68398 -7.36491,-18.19664 -49.03762,-35.76465 -102.09486,-66.01325 -157.9471,-89.81681 -38.95954,-16.59926 -79.24344,-30.0167 -120.33194,-40.18804 z m 354.55128,193.58096 c -6.20293,-5.81404 -14.06274,-7.32017 -17.49975,-3.51037 -3.43697,3.80976 -1.228,11.34504 4.83228,17.02527 7.20688,6.75492 14.28629,13.64537 21.23255,20.66705 8.04924,8.13619 15.9202,16.44887 23.60696,24.92901 5.57832,6.15408 13.07564,8.48793 16.94166,5.11494 3.86607,-3.37303 2.49098,-11.2559 -3.21812,-17.55439 -7.86699,-8.67915 -15.92298,-17.18768 -24.16205,-25.51657 -7.11061,-7.18781 -14.357,-14.24089 -21.73353,-21.15494 z M -30.5312,-841.28961 c -8.48169,-0.16184 -15.31139,3.98468 -15.31139,9.11564 0,5.1309 6.671822,9.24635 14.957907,9.40459 21.2720515,0.40621 42.529523,1.6776 63.701102,3.80535 8.246948,0.82882 15.362138,-2.46455 15.971946,-7.55927 0.609815,-5.09477 -5.678971,-10.02371 -14.119559,-10.87202 -21.668692,-2.17778 -43.4257985,-3.47882 -65.200006,-3.89429 z m -663.76487,322.31589 c -5.58223,7.54803 -6.2263,16.3535 -1.6201,19.61502 4.6062,3.26152 12.55876,-0.13911 18.00218,-7.49963 22.52867,-30.46295 47.22087,-59.32222 73.86306,-86.25245 44.24857,-44.72897 93.88816,-84.14139 147.46218,-117.13234 7.79376,-4.7994 11.85701,-12.43261 8.99928,-17.29918 -2.85773,-4.86657 -11.68727,-4.97311 -19.68257,-0.0499 -54.95941,33.84181 -105.86639,74.26064 -151.26437,120.15154 -27.3321,27.63052 -52.6565,57.22797 -75.75966,88.46696 z m 420.3656,-294.67211 c -8.18937,2.40474 -13.50027,8.42217 -11.96054,13.31552 1.53973,4.89335 9.17797,6.80326 17.17819,4.45428 20.53807,-6.03028 41.32552,-11.21887 62.29103,-15.55693 8.16666,-1.6898 14.00935,-6.97003 13.06538,-12.01319 -0.94398,-5.04316 -8.46088,-7.85451 -16.81866,-6.12484 -21.45616,4.44042 -42.73173,9.75175 -63.7554,15.92516 z m -516.1573,465.14541 c -0.18856,0.44985 -0.36347,0.90006 -0.52486,1.34964 0,0 0,0 0,0 -2.94109,8.19544 -1.35385,16.10648 3.62267,18.07012 4.97658,1.96366 11.4476,-2.60214 15.11591,-10.25551 0,0 0,0 0,0 0.20123,-0.41995 0.39409,-0.84943 0.57787,-1.28792 19.19929,-45.80862 42.7418,-89.8001 70.1443,-131.23824 5.04335,-7.62656 5.50739,-16.25533 0.86489,-19.465 -4.64246,-3.20963 -12.68845,0.40529 -17.8603,8.22613 -28.10068,42.49371 -52.24191,87.60604 -71.94048,134.60078 z m -55.23388,438.604427 c 1.2685,9.277814 6.94775,16.015993 12.52329,15.138443 5.57553,-0.87756 8.90297,-8.846946 7.66566,-17.89849 -4.99841,-36.565907 -7.51437,-73.475517 -7.51519,-110.377712 v -8e-6 c 0,-1.892085 0,-3.78417 0,-5.676254 l 0,-8e-6 c 2.4e-4,-10.862858 0.21843,-21.726358 0.65373,-32.581544 0.36605,-9.128338 -3.70847,-16.743402 -9.34265,-17.083544 -5.63417,-0.340142 -10.64281,6.910686 -11.01777,16.267369 -0.44589,11.12673 -0.66913,22.262288 -0.66891,33.397719 v 4e-6 5.676262 4e-6 c -7.6e-4,37.828152 2.57742,75.657778 7.70184,113.137759 z m 21.48142,103.727543 c 2.21618,8.21345 8.10496,13.63757 13.03193,12.20896 4.92696,-1.4286 7.01465,-9.00448 4.84863,-17.0332 -5.56058,-20.61129 -10.30142,-41.44692 -14.21621,-62.43918 -1.52492,-8.17713 -6.69038,-14.10281 -11.75091,-13.25523 -5.06054,0.84758 -8.01797,8.2881 -6.45796,16.65136 4.00487,21.4701 8.85514,42.78177 14.54452,63.86729 z m -25.73473,-292.69384 c -0.71536,8.477844 2.97148,15.585656 8.09173,15.923068 5.12026,0.337411 9.66795,-6.075548 10.36747,-14.365467 1.79578,-21.281671 4.42566,-42.493111 7.88331,-63.566631 1.34687,-8.20884 -1.49558,-15.53776 -6.54257,-16.46181 -5.04699,-0.92404 -10.35876,5.06694 -11.73656,13.4623 -3.53703,21.55235 -6.22692,43.24443 -8.06338,65.00854 z m 467.78238,817.20868 c 8.49405,3.92393 17.22416,2.75434 19.48087,-2.41882 2.25663,-5.173 -2.66139,-12.25456 -10.93694,-16.07706 -84.9844,-39.25453 -162.83188,-94.00834 -228.68582,-160.57723 -4.76712,-4.81859 -9.47161,-9.69923 -14.11223,-14.64004 -6.24286,-6.64669 -14.51857,-9.07421 -18.71218,-5.29739 -4.19376,3.77695 -2.54383,12.42693 3.86071,19.24612 4.76081,5.06903 9.58735,10.07667 14.47839,15.02103 67.57108,68.30474 147.39901,124.44727 234.6272,164.74339 z M -694.05476,461.97675 c 5.02011,6.8594 12.46415,9.794 16.5469,6.68654 4.0827,-3.10741 3.30677,-10.92196 -1.59943,-17.62587 -12.59506,-17.21007 -24.50107,-34.92559 -35.67974,-53.08822 -4.35447,-7.07495 -11.29743,-10.74486 -15.71668,-8.13803 -4.4193,2.60687 -4.51341,10.60796 -0.058,17.84694 11.43774,18.58372 23.61949,36.70937 36.50698,54.31864 z m 483.86682,310.7701 c 8.30425,1.72973 15.78334,-1.07967 16.73384,-6.12166 0.95049,-5.04192 -4.84392,-10.32185 -12.95708,-12.01145 -20.82812,-4.33755 -41.47771,-9.51999 -61.87747,-15.53852 -7.9463,-2.34439 -15.54625,-0.43157 -17.0924,4.45976 -1.54617,4.89138 3.7161,10.90277 11.85152,13.30317 20.88527,6.16231 42.02291,11.46815 63.34159,15.9087 z" />
  </g>
</svg>
