<?xml version="1.0" encoding="UTF-8" standalone="no"?>
<svg
   xmlns:dc="http://purl.org/dc/elements/1.1/"
   xmlns:cc="http://creativecommons.org/ns#"
   xmlns:rdf="http://www.w3.org/1999/02/22-rdf-syntax-ns#"
   xmlns:svg="http://www.w3.org/2000/svg"
   xmlns="http://www.w3.org/2000/svg"
   xmlns:sodipodi="http://sodipodi.sourceforge.net/DTD/sodipodi-0.dtd"
   xmlns:inkscape="http://www.inkscape.org/namespaces/inkscape"
   width="6999.2607"
   height="7000.1763"
   viewBox="0 0 1851.8877 1852.13"
   version="1.1"
   id="svg2480"
   inkscape:version="1.0.2 (e86c870879, 2021-01-15, custom)"
   sodipodi:docname="hot_saturn.svg">
  <defs
     id="defs2474">
    <inkscape:path-effect
       effect="skeletal"
       id="path-effect2455"
       is_visible="true"
       lpeversion="1"
       pattern="m -1157.686,668.76693 c -9.0168,0 -16.2758,7.21959 -16.2758,16.18686 0,8.96727 7.259,16.18637 16.2758,16.18637 h 297.89803 c 9.01683,0 16.27583,-7.2191 16.27583,-16.18637 0,-8.96727 -7.259,-16.18686 -16.27583,-16.18686 z m 556.33879,0 c -0.28177,0 -0.56148,0.007 -0.83966,0.0214 -1.94722,0.0975 -3.80217,0.53233 -5.50713,1.24711 -5.60201,2.34862 -9.58583,7.72004 -9.90806,14.0829 -0.014,0.27661 -0.0209,0.55529 -0.0209,0.83551 0,6.44523 3.75023,11.9869 9.20764,14.59454 2.13551,1.02037 4.53221,1.59184 7.0682,1.59184 h 297.89797 c 9.01683,0 16.27584,-7.21911 16.27584,-16.18638 0,-8.96726 -7.25901,-16.18686 -16.27584,-16.18686 z m 345.24599,0 c -9.01683,0 -16.2763,7.2191 -16.2763,16.18637 0,8.96727 7.25947,16.18637 16.2763,16.18637 H 41.79634 c 9.01682,0 16.27583,-7.2191 16.27583,-16.18637 0,-8.96727 -7.25901,-16.18637 -16.27583,-16.18637 z m -561.27089,1.47139 c -8.19711,0 -14.79629,6.56291 -14.79629,14.71499 0,8.15207 6.59918,14.71449 14.79629,14.71449 h 63.1303 c 8.19712,0 14.79631,-6.56242 14.79631,-14.71449 0,-8.15208 -6.59919,-14.71499 -14.79631,-14.71499 z m -677.17489,0.49031 c -9.0168,0 -16.2758,7.21909 -16.2758,16.18639 0,8.96727 7.259,16.18637 16.2758,16.18637 h 146.9761 c 9.0169,0 16.2759,-7.2191 16.2759,-16.18637 0,-8.9673 -7.259,-16.18639 -16.2759,-16.18639 z m 1575.0339,0 c -8.1971,0 -14.79628,6.5629 -14.79628,14.71497 0,8.15208 6.59918,14.71499 14.79628,14.71499 h 63.13077 c 8.19712,0 14.79584,-6.56291 14.79584,-14.71499 0,-8.15207 -6.59872,-14.71497 -14.79584,-14.71497 z m 149.96652,0.31675 c -9.01683,0 -16.27582,7.21911 -16.27582,16.18637 0,8.9673 7.25899,16.18641 16.27582,16.18641 h 146.97599 c 9.01683,0 16.27583,-7.21911 16.27583,-16.18641 0,-8.96726 -7.259,-16.18637 -16.27583,-16.18637 z m -2070.73932,1.64545 c -9.0168,0 -16.2758,7.2191 -16.2758,16.18637 0,8.96727 7.259,16.18638 16.2758,16.18638 h 297.8976 c 9.0168,0 16.2758,-7.21911 16.2758,-16.18638 0,-8.96727 -7.259,-16.18637 -16.2758,-16.18637 z"
       copytype="repeated_stretched"
       prop_scale="0.75858089"
       scale_y_rel="false"
       spacing="0"
       normal_offset="0"
       tang_offset="0"
       prop_units="false"
       vertical_pattern="false"
       hide_knot="false"
       fuse_tolerance="0" />
  </defs>
  <sodipodi:namedview
     id="base"
     pagecolor="#ffffff"
     bordercolor="#666666"
     borderopacity="1.0"
     inkscape:pageopacity="0.0"
     inkscape:pageshadow="2"
     inkscape:zoom="0.061871843"
     inkscape:cx="2834.4591"
     inkscape:cy="4217.7707"
     inkscape:document-units="px"
     inkscape:current-layer="layer1"
     inkscape:document-rotation="0"
     showgrid="false"
     units="px"
     fit-margin-top="0"
     fit-margin-left="0"
     fit-margin-right="0"
     fit-margin-bottom="0"
     inkscape:window-width="1566"
     inkscape:window-height="1033"
     inkscape:window-x="46"
     inkscape:window-y="0"
     inkscape:window-maximized="0"
     inkscape:snap-center="true" />
  <metadata
     id="metadata2477">
    <rdf:RDF>
      <cc:Work
         rdf:about="">
        <dc:format>image/svg+xml</dc:format>
        <dc:type
           rdf:resource="http://purl.org/dc/dcmitype/StillImage" />
        <dc:title />
      </cc:Work>
    </rdf:RDF>
  </metadata>
  <g
     inkscape:label="Layer 1"
     inkscape:groupmode="layer"
     id="layer1"
     transform="translate(897.1581,837.46336)">
    <rect
       style="opacity:0.9994;fill:none;fill-rule:evenodd;stroke:#875a2f;stroke-width:7.55158;stroke-linejoin:round;stroke-miterlimit:4;stroke-dasharray:181.237, 7.55158;stroke-dashoffset:0;stroke-opacity:1;paint-order:stroke fill markers"
       id="rect862-6"
       width="1376.595"
       height="1382.5286"
       x="-659.51172"
       y="-602.66266"
       ry="691.26428" />
    <rect
       style="opacity:0.9994;fill:#484537;fill-rule:evenodd;stroke-width:0.204058;stroke-linejoin:round;stroke-dashoffset:47.811;paint-order:stroke fill markers"
       id="rect860-8"
       width="176.49474"
       height="180.65489"
       x="189.28029"
       y="457.83557"
       ry="90.327446"
       transform="matrix(-0.90243019,0.4308361,-0.40609068,-0.91383279,0,0)" />
    <rect
       style="opacity:0.9994;fill:#ffccaa;fill-rule:evenodd;stroke-width:0.276906;stroke-linejoin:round;stroke-dashoffset:47.811;paint-order:stroke fill markers"
       id="rect833-5"
       width="168.59198"
       height="172.56587"
       x="193.0435"
       y="461.68747"
       ry="86.282936"
       transform="matrix(-0.90243019,0.4308361,-0.40609068,-0.91383279,0,0)" />
    <path
       id="path835-1"
       style="fill:#deaa87;stroke:#000000;stroke-width:0.266461px;stroke-linecap:butt;stroke-linejoin:miter;stroke-opacity:1"
       d="m -437.76619,-302.41718 c 4.73594,-2.26102 9.16942,-4.91782 13.28348,-7.91274 -0.0107,-0.0314 -0.0195,-0.0635 -0.0302,-0.0945 -1.96382,-5.70786 -5.50226,-10.71105 -9.52825,-15.10531 -2.12962,-2.32443 -4.40944,-4.50544 -6.40237,-6.95663 -1.99297,-2.45116 -3.71193,-5.21863 -4.5017,-8.31787 -0.37538,-1.47306 -0.53539,-3.01174 -0.39715,-4.52853 0.13824,-1.51684 0.57931,-3.01173 1.34681,-4.31112 0.76751,-1.29939 1.86674,-2.39763 3.18156,-3.07882 1.3148,-0.68121 2.84506,-0.93258 4.2865,-0.63414 1.44313,0.29877 2.73872,1.12119 3.88668,2.07563 1.14794,0.95446 2.17977,2.05131 3.31752,3.0188 1.84467,1.56864 3.97992,2.79349 6.28557,3.43002 2.30565,0.63654 4.78408,0.66965 7.06567,-0.054 2.2816,-0.72365 4.35107,-2.22428 5.67076,-4.28472 1.31969,-2.06041 1.84933,-4.68038 1.30015,-7.08714 -0.58732,-2.57411 -2.33585,-4.74114 -4.42554,-6.25943 -2.08968,-1.51827 -4.51347,-2.45887 -6.93605,-3.2904 -2.42256,-0.83153 -4.88761,-1.57599 -7.16997,-2.75929 -2.28236,-1.18328 -4.40492,-2.85589 -5.68924,-5.14158 -0.6439,-1.14594 -1.065,-2.43406 -1.16161,-3.75639 -0.0966,-1.32234 0.13779,-2.67778 0.72884,-3.85392 0.59106,-1.17611 1.54515,-2.1641 2.70769,-2.71781 1.16248,-0.55387 2.52995,-0.65707 3.73904,-0.22346 0.86355,0.30966 1.62759,0.87811 2.25864,1.56309 0.63107,0.685 1.13545,1.48499 1.57486,2.3154 0.87882,1.66086 1.51589,3.46769 2.58416,5.00464 1.68106,2.41861 4.39519,4.00755 7.25058,4.36295 2.85539,0.35539 5.8151,-0.49859 8.14877,-2.24066 2.33368,-1.74206 4.03696,-4.34049 4.84912,-7.20006 0.81216,-2.85953 0.74616,-5.9627 -0.0782,-8.8185 -0.62651,-2.17041 -1.67052,-4.18337 -2.45339,-6.29852 -0.78286,-2.11517 -1.30538,-4.43157 -0.82704,-6.64213 0.28945,-1.33763 0.93841,-2.57744 1.78931,-3.62692 0.85088,-1.04948 1.8998,-1.91467 3.02837,-2.62942 1.57449,-0.99715 3.29288,-1.70109 5.02652,-2.36938 -0.79608,-2.26421 -1.68662,-4.51354 -2.6773,-6.74289 -1.88736,-4.24717 -4.06131,-8.25991 -6.48408,-12.02659 -0.81757,-0.23484 -1.61167,-0.54947 -2.35731,-0.96824 -1.38984,-0.78056 -2.60969,-1.9264 -3.36839,-3.36377 -0.75613,-1.43253 -1.02101,-3.08969 -0.98013,-4.72975 -4.59945,-5.43595 -9.78417,-10.18718 -15.40761,-14.19662 -0.62738,1.58891 -1.00977,3.29185 -1.17785,5.00163 -0.30191,3.07143 0.0512,6.17646 0.64734,9.20132 1.80881,9.17729 5.81155,17.7133 8.54583,26.64109 0.89403,2.9191 1.65985,5.97367 1.30659,9.01435 -0.17662,1.52034 -0.64043,3.01816 -1.45251,4.2974 -0.81207,1.27924 -1.98355,2.33121 -3.36571,2.87214 -1.231,0.4817 -2.58907,0.54752 -3.89033,0.34526 -1.30126,-0.20226 -2.55296,-0.6636 -3.75833,-1.21055 -2.41071,-1.09392 -4.70718,-2.55135 -7.28529,-3.09855 -2.42676,-0.51509 -5.00682,-0.17093 -7.25383,0.90978 -2.24702,1.08066 -4.1551,2.88496 -5.45017,5.07365 -1.29508,2.18871 -1.9794,4.75125 -2.01452,7.31855 -0.0351,2.56729 0.57294,5.13357 1.69823,7.42092 1.62452,3.30212 4.24599,5.93804 6.41719,8.88335 0.70986,0.96294 1.37956,1.97352 1.8109,3.09989 0.43134,1.12639 0.61217,2.38569 0.32549,3.56055 -0.23046,0.94446 -0.75744,1.79979 -1.44947,2.45898 -0.69204,0.65916 -1.54439,1.12628 -2.44462,1.40628 -1.80046,0.55997 -3.74325,0.37678 -5.57467,-0.0622 -1.83143,-0.43901 -3.60072,-1.12542 -5.42955,-1.57587 -1.82884,-0.45046 -3.76667,-0.65857 -5.57661,-0.13247 -1.86165,0.54113 -3.47038,1.84064 -4.61879,3.45288 -1.14838,1.61224 -1.86059,3.524 -2.28541,5.47909 -0.84967,3.91014 -0.58713,7.98522 -1.10227,11.95759 -0.9124,7.03605 -4.20747,13.45536 -7.18092,19.85081 -2.97346,6.39545 -5.72979,13.21469 -5.43591,20.30749 0.0798,1.9272 0.39754,3.85452 1.0246,5.66695 5.80836,0.53739 11.70641,0.44068 17.60132,-0.31385 -0.0535,-0.62457 -0.15558,-1.24593 -0.30813,-1.8497 -0.47867,-1.89456 -1.3655,-3.64883 -2.30061,-5.35061 -0.93509,-1.70178 -1.9295,-3.37859 -2.64983,-5.1891 -0.72037,-1.81053 -1.16057,-3.78617 -0.92751,-5.72966 0.2933,-2.44586 1.6849,-4.70839 3.65209,-6.09303 1.96716,-1.38464 4.4701,-1.89345 6.81333,-1.47417 2.34322,0.41928 4.51023,1.74319 6.07003,3.60353 1.55979,1.86033 2.51617,4.23718 2.78702,6.68584 0.34581,3.12626 -0.39062,6.25751 -1.04011,9.33141 -0.26144,1.23735 -0.50801,2.49559 -0.66708,3.75733 4.55437,-1.26822 9.07104,-2.95046 13.50506,-5.06734 z" />
    <path
       id="path839-9"
       style="fill:#deaa87;stroke:#000000;stroke-width:0.266461px;stroke-linecap:butt;stroke-linejoin:miter;stroke-opacity:1"
       d="m -530.40413,-318.16222 c 0.46615,-0.52503 0.87685,-1.10228 1.21429,-1.72426 0.70175,-1.29349 1.08977,-2.77326 1.08485,-4.25721 -0.005,-1.60234 -0.46049,-3.17027 -1.06045,-4.64704 -0.59995,-1.47677 -1.34658,-2.88466 -1.97756,-4.34746 -0.63099,-1.4628 -1.15007,-3.00263 -1.25675,-4.60116 -0.10667,-1.59852 0.23225,-3.27135 1.17461,-4.54158 0.90883,-1.22501 2.30359,-1.98275 3.74457,-2.37925 1.44099,-0.39647 2.94419,-0.46533 4.43325,-0.54203 1.48905,-0.0767 2.993,-0.16644 4.42342,-0.6021 1.43041,-0.43567 2.80041,-1.25399 3.64574,-2.52689 0.48075,-0.72388 0.77685,-1.57351 0.88614,-2.44498 0.10931,-0.87145 0.0346,-1.76377 -0.18506,-2.61254 -0.43935,-1.69759 -1.4456,-3.1933 -2.65986,-4.42016 -2.42843,-2.45374 -5.64472,-3.89075 -8.26601,-6.12114 -1.6652,-1.41686 -3.08687,-3.16462 -4.02514,-5.17479 -0.93827,-2.01017 -1.37968,-4.28847 -1.12085,-6.50536 0.25884,-2.21688 1.23988,-4.36007 2.82924,-5.86762 1.58937,-1.50752 3.79295,-2.33735 5.93517,-2.10026 2.2341,0.24724 4.19831,1.56602 6.17008,2.68244 0.98587,0.55823 2.00161,1.07619 3.08276,1.3925 1.08115,0.3163 2.23731,0.42401 3.33088,0.1575 1.38654,-0.3379 2.60572,-1.27347 3.42947,-2.47789 0.82376,-1.20438 1.26698,-2.66226 1.39049,-4.13303 0.247,-2.94156 -0.73715,-5.83479 -1.82833,-8.56225 -1.09119,-2.72747 -2.32063,-5.46133 -2.60465,-8.3993 -0.142,-1.46898 -0.0379,-2.97763 0.43262,-4.37109 0.47054,-1.39345 1.32208,-2.66724 2.49418,-3.50607 0.89713,-0.64206 1.95066,-1.01414 3.01607,-1.25385 1.06539,-0.23973 2.15288,-0.35397 3.23014,-0.52766 1.07725,-0.17372 2.15574,-0.41033 3.14853,-0.87725 0.9927,-0.46715 1.90232,-1.18181 2.46486,-2.14977 0.4671,-0.80376 0.67683,-1.75504 0.65433,-2.69305 -0.0225,-0.93803 -0.27116,-1.86235 -0.66498,-2.70721 -0.78769,-1.6897 -2.12352,-3.0335 -3.51345,-4.23605 -1.38992,-1.20256 -2.86991,-2.31091 -4.08176,-3.70513 -1.21184,-1.39424 -2.15546,-3.14191 -2.19951,-5.01795 -0.0253,-1.08146 0.25197,-2.16082 0.73928,-3.11744 0.48732,-0.95661 1.17978,-1.7928 1.97875,-2.48881 1.59793,-1.39205 3.58519,-2.21046 5.57994,-2.84773 1.99475,-0.63726 4.0417,-1.1196 5.96812,-1.95267 1.92644,-0.83301 3.76285,-2.06327 4.91206,-3.86939 0.92786,-1.45827 1.35076,-3.19372 1.68903,-4.905 0.33827,-1.71131 0.61332,-3.45632 1.29542,-5.05368 0.89836,-2.10392 2.4608,-3.83968 4.20114,-5.2678 1.74035,-1.42812 3.67104,-2.58123 5.54464,-3.81498 0.40935,-0.2696 0.81649,-0.54552 1.2193,-0.82771 -6.88558,-0.18958 -13.85599,0.50322 -20.76245,2.13919 -1.36205,1.99419 -3.06213,3.8143 -5.25754,4.66495 -1.19265,0.46216 -2.51056,0.61582 -3.75378,0.33084 -0.92894,-0.21293 -1.81047,-0.68125 -2.49785,-1.35791 -1.69921,0.6781 -3.38882,1.41664 -5.06688,2.21777 -2.62555,1.25349 -5.15863,2.62799 -7.59575,4.11459 1.24669,3.66007 2.34478,7.4499 2.10007,11.30904 -0.2149,3.38859 -1.45368,6.61048 -2.78858,9.71174 -1.33488,3.10127 -2.79281,6.18413 -3.49322,9.50155 -0.57927,2.74363 -0.62362,5.57226 -0.81678,8.37368 -0.19316,2.80144 -0.55196,5.64642 -1.70244,8.18926 -1.00095,2.21235 -2.56888,4.11152 -4.35183,5.71016 -1.78294,1.59865 -3.7834,2.91376 -5.80602,4.16902 -4.04527,2.51057 -8.34095,4.92124 -11.16515,8.83464 -3.07161,4.25621 -4.00887,9.99304 -2.80663,15.16011 1.20226,5.16707 4.43693,9.72623 8.63537,12.77817 1.56631,1.13858 3.28018,2.09493 4.62073,3.50965 0.67028,0.70736 1.24069,1.52966 1.58449,2.45489 0.34383,0.92521 0.45162,1.95862 0.21245,2.91859 -0.28315,1.13644 -1.03811,2.10943 -1.96937,2.77718 -0.93127,0.66776 -2.03008,1.05036 -3.14298,1.26718 -2.22579,0.43366 -4.54087,0.23467 -6.74727,0.76417 -2.03033,0.48726 -3.90807,1.59107 -5.41187,3.08658 -0.14628,0.14543 -0.2862,0.29739 -0.42539,0.44985 0.0127,0.0286 0.0249,0.0573 0.0376,0.0859 4.61865,10.39339 10.94624,19.38379 18.47203,26.78538 z" />
    <rect
       style="opacity:0.9994;fill:#d35f5f;fill-rule:evenodd;stroke-width:0.27689;stroke-linejoin:round;stroke-dashoffset:47.811;paint-order:stroke fill markers"
       id="rect843-0"
       width="243.2005"
       height="30.787624"
       x="-316.07086"
       y="558.15649"
       ry="15.393812"
       transform="matrix(-0.32504913,0.94569713,-0.93808579,-0.34640302,0,0)" />
    <path
       id="path845-1"
       style="fill:#ff0000;stroke:#000000;stroke-width:0.266461px;stroke-linecap:butt;stroke-linejoin:miter;stroke-opacity:1"
       d="m -502.62867,-268.19308 c 0.40632,-0.19964 0.80268,-0.42026 1.1907,-0.65651 1.48663,-4.4554 1.97765,-9.27358 0.82629,-13.80458 -0.62294,-2.45143 -1.71279,-4.80314 -1.87891,-7.33231 -0.0831,-1.26459 0.078,-2.56773 0.62352,-3.70211 0.54553,-1.13439 1.50301,-2.08463 2.67567,-2.44412 1.19332,-0.36582 2.46955,-0.10651 3.69739,0.10328 0.61392,0.10488 1.23309,0.19715 1.85526,0.19054 0.62217,-0.006 1.2511,-0.11533 1.81139,-0.39578 0.94729,-0.47413 1.63246,-1.4213 1.93573,-2.46535 0.30326,-1.04406 0.24986,-2.17537 -0.0171,-3.23003 -0.53392,-2.1093 -1.86352,-3.88564 -2.90208,-5.78211 -2.19893,-4.01537 -3.12529,-8.73493 -2.80219,-13.3399 0.32311,-4.60496 1.8718,-9.08666 4.28375,-12.96838 3.12266,-5.02557 7.58074,-8.96866 11.58245,-13.27307 4.00172,-4.30443 7.71086,-9.29741 8.70354,-15.18583 0.62023,-3.679 0.13277,-7.45474 -0.47226,-11.13645 -0.60504,-3.68172 -1.33027,-7.38243 -1.18271,-11.11405 0.22971,-5.80958 2.59242,-11.3736 5.92159,-16.05339 3.32915,-4.67981 7.59428,-8.55556 12.01371,-12.13667 0.97018,-0.78614 1.96034,-1.57121 2.72112,-2.5749 0.38039,-0.50185 0.70052,-1.05648 0.90937,-1.65687 0.20885,-0.60036 0.30464,-1.2477 0.23909,-1.88228 -0.0974,-0.94345 -0.54575,-1.81868 -1.12811,-2.55082 -0.58223,-0.73226 -1.29658,-1.33754 -2.01007,-1.93205 -0.71346,-0.59451 -1.43525,-1.18792 -2.03868,-1.90145 -0.60342,-0.71354 -1.08836,-1.56314 -1.24096,-2.49873 -0.10472,-0.64221 -0.0488,-1.30825 0.13197,-1.93207 0.18074,-0.6238 0.48458,-1.20604 0.86547,-1.72397 0.76233,-1.03565 1.81721,-1.80208 2.92183,-2.42338 1.10465,-0.62128 2.27241,-1.1131 3.39145,-1.70605 1.11903,-0.59295 2.20439,-1.30075 3.03823,-2.2754 0.97082,-1.13472 1.55425,-2.58317 1.85281,-4.0679 0.29857,-1.48469 0.32641,-3.01321 0.29135,-4.52938 -0.0701,-3.03238 -0.36773,-6.1875 0.74127,-8.9945 0.87366,-2.2114 2.53361,-3.96905 4.12657,-5.69653 1.59295,-1.7275 3.20135,-3.55875 3.92543,-5.82746 0.77784,-2.43712 0.44419,-5.08909 0.0525,-7.62382 -0.39165,-2.53474 -0.83183,-5.14707 -0.25062,-7.6424 0.60795,-2.61021 2.29721,-4.83942 4.30749,-6.53311 1.26606,-1.06668 2.6603,-1.94582 4.09605,-2.75473 -1.76381,-2.64921 -4.32006,-4.77164 -7.48162,-5.93912 -3.11805,-1.15138 -6.34637,-1.19681 -9.29577,-0.33793 -0.32577,1.26371 -0.56524,2.55056 -0.705,3.85185 -0.43031,4.007 0.0956,8.14976 1.71502,11.81546 0.52488,1.18849 1.1663,2.33795 1.45823,3.60952 0.14599,0.63581 0.20107,1.30001 0.10253,1.94554 -0.0985,0.64551 -0.35654,1.27251 -0.78289,1.75401 -0.59555,0.67248 -1.47646,1.01517 -2.35258,1.10804 -0.87615,0.0928 -1.75862,-0.0413 -2.62687,-0.19435 -0.86827,-0.15301 -1.74021,-0.32569 -2.6208,-0.30984 -0.88058,0.0159 -1.78468,0.23619 -2.48086,0.79532 -0.63562,0.51047 -1.05609,1.27504 -1.25102,2.08362 -0.19493,0.80859 -0.176,1.66013 -0.0423,2.48196 0.26726,1.6437 0.97857,3.17548 1.33888,4.79998 0.74225,3.34627 -0.0636,6.9052 -1.59557,9.94953 -1.532,3.04433 -3.74802,5.6531 -5.99144,8.17942 -2.51972,2.83743 -5.13328,5.65703 -6.90867,9.04606 -0.88771,1.69453 -1.55628,3.52499 -1.84227,5.43026 -0.28599,1.90528 -0.18056,3.88831 0.43157,5.70915 0.71405,2.12399 2.07253,3.9369 3.1625,5.8818 0.545,0.97246 1.02842,1.99075 1.32045,3.07388 0.29198,1.08315 0.38737,2.23768 0.15675,3.33661 -0.28102,1.3392 -1.0355,2.53751 -1.98435,3.49193 -0.94896,0.95437 -2.08818,1.68227 -3.26025,2.31663 -2.34416,1.26865 -4.92298,2.24103 -6.77577,4.19683 -1.50069,1.58405 -2.39508,3.70235 -2.84181,5.87358 -0.44671,2.17124 -0.47321,4.41042 -0.43446,6.63013 0.0388,2.2197 0.1407,4.44546 -0.0554,6.65621 -0.19608,2.21076 -0.70552,4.42847 -1.80567,6.33331 -1.28869,2.23132 -3.29849,3.89767 -4.94385,5.86097 -0.82268,0.98165 -1.56345,2.05394 -2.04405,3.25503 -0.48043,1.20115 -0.68961,2.54259 -0.43766,3.81639 0.23796,1.2031 0.87038,2.28654 1.61178,3.24454 0.74139,0.958 1.59798,1.81342 2.3746,2.74094 0.7766,0.92754 1.48302,1.94798 1.8539,3.11438 0.18543,0.58321 0.28397,1.19924 0.25849,1.81273 -0.0254,0.6135 -0.17681,1.22426 -0.46766,1.75922 -0.43042,0.7917 -1.15192,1.38863 -1.95466,1.75399 -0.80279,0.36531 -1.68498,0.51225 -2.56118,0.54371 -1.75241,0.063 -3.50358,-0.32217 -5.25266,-0.19378 -2.35701,0.17301 -4.60389,1.29413 -6.35405,2.93962 -1.75017,1.64548 -3.02165,3.79186 -3.85492,6.0837 -1.6665,4.58367 -1.60732,9.61777 -1.55981,14.51585 0.0301,3.10631 0.0477,6.22247 0.44479,9.30153 0.39711,3.07908 1.18762,6.13902 2.67532,8.83573 0.39089,0.70857 0.83078,1.395 1.10942,2.15841 0.13934,0.38172 0.23723,0.78203 0.26175,1.18934 0.0245,0.40731 -0.0257,0.82257 -0.17319,1.20099 -0.18035,0.46203 -0.50287,0.85868 -0.89653,1.14494 -0.39367,0.28626 -0.85623,0.46398 -1.33123,0.54164 -0.95003,0.15525 -1.92459,-0.0853 -2.81211,-0.46934 -0.88742,-0.38429 -1.71071,-0.90866 -2.5687,-1.35907 -0.85799,-0.45042 -1.77188,-0.83176 -2.73171,-0.89507 -0.85588,-0.0565 -1.72261,0.14698 -2.48574,0.55262 -0.7631,0.40565 -1.42312,1.00966 -1.93116,1.72584 -1.01604,1.43234 -1.40196,3.27792 -1.28505,5.05164 0.11689,1.77372 0.7064,3.48451 1.48661,5.06778 0.78015,1.58329 1.75105,3.05586 2.68825,4.54483 1.35653,2.15517 2.66623,4.39839 3.27076,6.89417 0.30226,1.2479 0.42166,2.55078 0.27034,3.82781 -0.15131,1.27703 -0.57992,2.52803 -1.30633,3.57133 -0.72174,1.03659 -1.71482,1.84297 -2.77626,2.49389 -1.06144,0.65092 -2.19758,1.15719 -3.31693,1.69386 -0.4463,0.21396 -0.88932,0.43845 -1.32593,0.67388 0.9213,0.59359 1.91569,1.09835 2.98112,1.49177 4.00008,1.4771 8.18428,1.14118 11.72434,-0.60041 z" />
  </g>
</svg>
