<?xml version="1.0" encoding="UTF-8" standalone="no"?>
<svg
   xmlns:dc="http://purl.org/dc/elements/1.1/"
   xmlns:cc="http://creativecommons.org/ns#"
   xmlns:rdf="http://www.w3.org/1999/02/22-rdf-syntax-ns#"
   xmlns:svg="http://www.w3.org/2000/svg"
   xmlns="http://www.w3.org/2000/svg"
   xmlns:sodipodi="http://sodipodi.sourceforge.net/DTD/sodipodi-0.dtd"
   xmlns:inkscape="http://www.inkscape.org/namespaces/inkscape"
   width="6999.2607"
   height="7000.1763"
   viewBox="0 0 1851.8877 1852.13"
   version="1.1"
   id="svg6238"
   inkscape:version="1.0.2 (e86c870879, 2021-01-15, custom)"
   sodipodi:docname="last_level.svg">
  <defs
     id="defs6232">
    <inkscape:path-effect
       effect="skeletal"
       id="path-effect2455"
       is_visible="true"
       lpeversion="1"
       pattern="m -1059.4718,576.3855 c -9.0168,0 -16.2758,7.21959 -16.2758,16.18686 0,8.96727 7.259,16.18637 16.2758,16.18637 h 297.89806 c 9.01683,0 16.27583,-7.2191 16.27583,-16.18637 0,-8.96727 -7.259,-16.18686 -16.27583,-16.18686 z m 556.33882,0 c -0.28177,0 -0.56148,0.007 -0.83966,0.0214 -1.94722,0.0975 -3.80217,0.53232 -5.50713,1.2471 -5.60201,2.34862 -9.58583,7.72004 -9.90806,14.0829 -0.014,0.27662 -0.0209,0.55529 -0.0209,0.83551 0,6.44523 3.75023,11.9869 9.20764,14.59454 2.13551,1.02037 4.53221,1.59184 7.0682,1.59184 h 297.89798 c 9.01683,0 16.27583,-7.21911 16.27583,-16.18638 0,-8.96726 -7.259,-16.18686 -16.27583,-16.18686 z m 345.24599,0 c -9.01683,0 -16.27629,7.2191 -16.27629,16.18638 0,8.96727 7.25946,16.18636 16.27629,16.18636 h 297.89756 c 9.01682,0 16.27583,-7.21909 16.27583,-16.18636 0,-8.96728 -7.25901,-16.18638 -16.27583,-16.18638 z m -561.27089,1.47139 c -8.19711,0 -14.79629,6.56291 -14.79629,14.71499 0,8.15207 6.59918,14.71449 14.79629,14.71449 h 63.1303 c 8.19712,0 14.79631,-6.56242 14.79631,-14.71449 0,-8.15208 -6.59919,-14.71499 -14.79631,-14.71499 z m -677.17472,0.49031 c -9.0168,0 -16.2758,7.21909 -16.2758,16.18639 0,8.96727 7.259,16.18637 16.2758,16.18637 h 146.9759 c 9.0169,0 16.2759,-7.2191 16.2759,-16.18637 0,-8.9673 -7.259,-16.18639 -16.2759,-16.18639 z m 1575.03373,0 c -8.1971,0 -14.79628,6.5629 -14.79628,14.71497 0,8.15208 6.59918,14.71499 14.79628,14.71499 h 63.13077 c 8.19712,0 14.79584,-6.56291 14.79584,-14.71499 0,-8.15207 -6.59872,-14.71497 -14.79584,-14.71497 z m 149.96652,0.31675 c -9.01683,0 -16.27582,7.21911 -16.27582,16.18637 0,8.9673 7.25899,16.18641 16.27582,16.18641 h 146.97599 c 9.01683,0 16.27583,-7.21911 16.27583,-16.18641 0,-8.96726 -7.259,-16.18637 -16.27583,-16.18637 z m -2070.73925,1.64545 c -9.0168,0 -16.2758,7.2191 -16.2758,16.18637 0,8.96727 7.259,16.18638 16.2758,16.18638 h 297.8976 c 9.0168,0 16.2758,-7.21911 16.2758,-16.18638 0,-8.96727 -7.259,-16.18637 -16.2758,-16.18637 z"
       copytype="repeated_stretched"
       prop_scale="0.75858089"
       scale_y_rel="false"
       spacing="0"
       normal_offset="0"
       tang_offset="0"
       prop_units="false"
       vertical_pattern="false"
       hide_knot="false"
       fuse_tolerance="0" />
  </defs>
  <sodipodi:namedview
     id="base"
     pagecolor="#ffffff"
     bordercolor="#666666"
     borderopacity="1.0"
     inkscape:pageopacity="0.0"
     inkscape:pageshadow="2"
     inkscape:zoom="0.061871843"
     inkscape:cx="3365.155"
     inkscape:cy="5278.7136"
     inkscape:document-units="px"
     inkscape:current-layer="layer1"
     inkscape:document-rotation="0"
     showgrid="false"
     inkscape:window-width="1566"
     inkscape:window-height="1033"
     inkscape:window-x="276"
     inkscape:window-y="167"
     inkscape:window-maximized="0"
     units="px"
     fit-margin-top="0"
     fit-margin-left="0"
     fit-margin-right="0"
     fit-margin-bottom="0" />
  <metadata
     id="metadata6235">
    <rdf:RDF>
      <cc:Work
         rdf:about="">
        <dc:format>image/svg+xml</dc:format>
        <dc:type
           rdf:resource="http://purl.org/dc/dcmitype/StillImage" />
        <dc:title></dc:title>
      </cc:Work>
    </rdf:RDF>
  </metadata>
  <g
     inkscape:label="Layer 1"
     inkscape:groupmode="layer"
     id="layer1"
     transform="translate(798.94386,929.84476)">
    <path
       style="font-variation-settings:normal;opacity:0.9994;vector-effect:none;fill:#ffe6d5;fill-opacity:1;fill-rule:evenodd;stroke:none;stroke-width:4.86908;stroke-linecap:butt;stroke-linejoin:round;stroke-miterlimit:4;stroke-dasharray:none;stroke-dashoffset:0;stroke-opacity:1;paint-order:markers fill stroke;stop-color:#000000"
       id="rect2453"
       width="1827.4542"
       height="1828.5092"
       x="-786.72711"
       y="-918.03436"
       ry="912.86725"
       inkscape:path-effect="#path-effect2455"
       sodipodi:type="rect"
       d="m 895.62758,-525.36895 c -6.55449,-9.67899 -16.49224,-14.16248 -22.03669,-10.22146 -5.54444,3.94102 -4.67855,14.56803 1.70297,23.99138 32.94646,48.65078 61.15593,100.505 83.97249,154.63393 25.85724,61.32452 44.72555,125.57366 56.42855,191.12034 2.0006,11.20477 8.795,19.42335 15.5168,18.37843 6.7218,-1.04493 10.7131,-11.18922 8.6583,-22.69524 -12.0207,-67.30903 -31.4043,-133.29908 -57.97451,-196.34309 -23.45383,-55.62936 -52.42844,-108.8937 -86.26791,-158.86429 z m 144.15682,688.44959 c 0.064,-0.35951 0.1229,-0.71739 0.1753,-1.07431 0.3694,-2.49845 0.4555,-4.92361 0.2911,-7.19143 -0.5401,-7.45019 -3.7853,-13.15812 -8.4909,-14.30975 -0.2046,-0.0501 -0.4121,-0.0914 -0.6221,-0.12412 -4.8309,-0.75355 -9.7057,3.30953 -12.8057,9.78152 -1.2128,2.53187 -2.1565,5.43881 -2.7206,8.58885 -11.7092,65.38512 -30.54926,129.475 -56.34519,190.65411 -22.87784,54.27432 -51.17761,106.2617 -84.23808,155.02589 -6.38647,9.42004 -7.2579,20.0466 -1.71552,23.99052 5.54237,3.94391 15.48248,-0.53437 22.04205,-10.20996 33.95657,-50.08706 63.02388,-103.4881 86.54071,-159.26688 26.50723,-62.89456 45.86193,-128.72122 57.88893,-195.86444 z M 859.25869,567.84626 c 7.18368,-9.222 8.38164,-20.0587 2.92175,-24.11608 -5.45989,-4.05737 -15.30113,0.0467 -22.29492,9.025 -22.78283,29.24758 -47.36236,57.09343 -73.5738,83.30422 -62.39795,62.39951 -134.06232,115.55035 -211.84533,157.22937 -10.02995,5.37442 -15.73853,14.37744 -12.66408,20.44483 3.07445,6.06739 13.95758,6.72053 24.26169,1.19937 79.90913,-42.81703 153.49584,-97.39438 217.61238,-161.50891 26.93186,-26.9327 52.18088,-55.5364 75.58231,-85.5778 z m 187.57861,-683.49808 c -1.2512,-10.53919 -7.3834,-18.31178 -13.5084,-17.4576 -6.125,0.85417 -9.8831,9.80079 -8.6618,20.0894 3.1352,26.412679 5.1211,52.962614 5.9465,79.546496 0.3215,10.35531 5.3668,18.643757 11.5505,18.578561 6.1838,-0.0652 11.0932,-8.662811 10.7641,-19.271127 -0.8449,-27.233392 -2.8789,-54.429737 -6.0909,-81.48573 z M 575.32223,-815.76455 c -10.21881,-5.63822 -21.09547,-5.11219 -24.2445,0.91686 -3.14903,6.02903 2.43476,15.09492 12.3816,20.58328 54.0453,29.82054 105.02864,65.21816 151.86745,105.42828 8.62061,7.40061 19.06754,9.46182 23.61496,4.40299 4.54744,-5.05884 1.23668,-15.43309 -7.61908,-23.03569 -48.11645,-41.30755 -100.47745,-77.66098 -156.00043,-108.29572 z M 520.59409,836.06187 c 9.61256,-4.49451 15.06238,-12.75794 12.32682,-18.30346 -2.73556,-5.54552 -12.40385,-6.30346 -21.78182,-1.91888 -10.30753,4.81919 -20.70711,9.44098 -31.192,13.86062 -14.00265,5.90408 -28.15756,11.44408 -42.44541,16.61791 -9.73238,3.52422 -16.03644,10.89115 -14.05371,16.74731 1.98272,5.85616 11.67637,7.85224 21.65305,4.24003 14.6465,-5.303 29.15905,-10.98152 43.51833,-17.03347 10.74887,-4.53177 21.40937,-9.27004 31.97474,-14.21006 z m -183.29028,62.7282 c 11.37048,-2.61009 19.12376,-10.25077 17.45255,-16.84368 -1.67122,-6.59294 -11.87479,-9.62965 -22.94565,-7.08893 -60.15237,13.80473 -121.73595,21.47413 -183.44706,22.86693 -11.31242,0.25532 -20.43022,5.66427 -20.50379,12.42894 -2.9e-4,0.0271 -4.4e-4,0.0542 -4.4e-4,0.0814 0,0.0271 1.5e-4,0.0543 4.4e-4,0.0814 0.0736,6.76464 9.43995,12.22194 21.05757,11.96006 63.37603,-1.42864 126.60605,-9.30442 188.38638,-23.48607 z M 147.15021,-928.62537 c -8.67579,-0.17941 -16.07863,2.81873 -19.29035,7.1653 -1.10666,1.50327 -1.71972,3.16479 -1.71972,4.914 0,1.74921 0.61306,3.41074 1.71972,4.914 3.17155,4.33836 10.37858,7.38534 18.78233,7.55936 113.7423,2.35529 227.09408,26.06518 331.85953,70.24161 10.28983,4.33729 20.4973,8.87021 30.61598,13.59422 10.27539,4.79718 20.87672,3.965 23.89519,-2.13043 3.01847,-6.09544 -2.94773,-15.18971 -13.50707,-20.11977 -10.39829,-4.85486 -20.88866,-9.51399 -31.46468,-13.97282 -107.71297,-45.39864 -224.07521,-69.74982 -340.89093,-72.16547 z M -641.62783,517.80901 c 6.55448,9.67899 16.49224,14.16248 22.03668,10.22147 5.54445,-3.94102 4.67856,-14.56803 -1.70295,-23.99138 -32.94636,-48.65068 -61.15575,-100.50478 -83.97225,-154.63357 -25.85729,-61.32466 -44.72562,-125.57394 -56.42867,-191.12077 -2.00055,-11.20477 -8.7949,-19.42336 -15.51671,-18.37843 -6.72181,1.04492 -10.71319,11.18921 -8.65834,22.69523 12.02066,67.30918 31.40428,133.29938 57.97458,196.34353 23.45377,55.62922 52.4283,108.89344 86.26766,158.86392 z M -785.7843,-170.64066 c -0.0644,0.35952 -0.1229,0.7174 -0.17531,1.07432 -0.3694,2.49845 -0.45547,4.92361 -0.29109,7.19143 0.54006,7.45018 3.78532,13.15812 8.49088,14.30975 0.20457,0.0501 0.41208,0.0914 0.62212,0.12413 4.83091,0.75354 9.70565,-3.30953 12.80572,-9.78152 1.21275,-2.53187 2.15641,-5.43882 2.72053,-8.58885 11.7092,-65.38497 30.54927,-129.4747 56.34514,-190.65368 22.8779,-54.27445 51.17775,-106.26195 84.23832,-155.02625 6.38648,-9.42004 7.25792,-20.0466 1.71554,-23.99052 -5.54238,-3.94392 -15.48248,0.53436 -22.04206,10.20995 -33.95667,50.08717 -63.02407,103.48833 -86.54096,159.26725 -26.5072,62.89442 -45.86183,128.72093 -57.88883,195.86399 z m 180.52589,-404.76552 c -7.18368,9.22199 -8.38166,20.05869 -2.92176,24.11607 5.45988,4.05738 15.30113,-0.0467 22.29492,-9.02498 22.78275,-29.24746 47.36219,-57.09319 73.57353,-83.30388 62.39805,-62.39962 134.06255,-115.55052 211.84572,-157.22958 10.02995,-5.37441 15.73853,-14.37743 12.66409,-20.44482 -3.07445,-6.0674 -13.95758,-6.72054 -24.26169,-1.19938 -79.90928,42.81706 -153.49614,97.39448 -217.61278,161.50912 -26.93175,26.93259 -52.18069,55.53618 -75.58203,85.57745 z M -792.83736,108.0918 c 1.25118,10.5392 7.3834,18.31178 13.50838,17.45761 6.12498,-0.85417 9.88311,-9.80079 8.66183,-20.0894 -3.13524,-26.412676 -5.12111,-52.962612 -5.94643,-79.546494 -0.32149,-10.35531 -5.36682,-18.6437597 -11.55056,-18.5785661 -6.18374,0.065194 -11.09319,8.6628051 -10.76409,19.2711211 0.84486,27.233392 2.87889,54.429739 6.09087,81.485729 z m 471.51474,700.11296 c 10.2188,5.63823 21.09546,5.11221 24.2445,-0.91684 3.14903,-6.02903 -2.43475,-15.09492 -12.3816,-20.58329 -54.04528,-29.82057 -105.0286,-65.21821 -151.86739,-105.42835 -8.62061,-7.40062 -19.06754,-9.46184 -23.61496,-4.40301 -4.54744,5.05885 -1.23669,15.43309 7.61907,23.03569 48.11643,41.30758 100.47741,77.66104 156.00038,108.2958 z m 54.72893,-1651.82639 c -9.61256,4.49451 -15.06238,12.75794 -12.32682,18.30345 2.73555,5.54553 12.40384,6.30347 21.78181,1.91889 10.30741,-4.81912 20.70686,-9.44085 31.19161,-13.86043 14.00279,-5.90414 28.15783,-11.44419 42.44582,-16.61806 9.73238,-3.52422 16.03644,-10.89114 14.05372,-16.74731 -1.98272,-5.85615 -11.67637,-7.85224 -21.65305,-4.24003 -14.64664,5.30304 -29.15933,10.98161 -43.51875,17.03362 -10.74874,4.53171 -21.40909,9.26992 -31.97434,14.20987 z m 183.290317,-62.72811 c -11.370485,2.61008 -19.123767,10.25076 -17.452557,16.84367 1.671212,6.59294 11.874786,9.62966 22.945649,7.08895 60.152371,-13.80471 121.735958,-21.47408 183.447071,-22.86685 11.35774,-0.25634 20.50423,-5.70788 20.50423,-12.51031 1e-5,-6.80239 -9.39383,-12.30437 -21.058,-12.04144 -63.376031,1.42861 -126.60606,9.30436 -188.386393,23.48598 z M 106.84934,921.06579 c 8.67619,0.17942 16.07932,-2.819 19.2908,-7.16589 1.10638,-1.50311 1.71928,-3.16442 1.71928,-4.9134 0,-1.74898 -0.6129,-3.41029 -1.71928,-4.9134 -3.17132,-4.33869 -10.37863,-7.38594 -18.78276,-7.55997 -113.7421594,-2.35534 -227.09378,-26.06523 -331.8591,-70.2416 -10.28996,-4.33734 -20.49757,-8.87033 -30.61637,-13.5944 -10.2754,-4.79719 -20.87673,-3.96502 -23.8952,2.13042 -3.01847,6.09543 2.94772,15.1897 13.50707,20.11977 10.39841,4.85493 20.88893,9.51412 31.46508,13.97301 107.71283,45.39858 224.0749152,69.74976 340.89048,72.16546 z" />
  </g>
</svg>
