<?xml version="1.0" encoding="UTF-8" standalone="no"?>
<svg
   xmlns:dc="http://purl.org/dc/elements/1.1/"
   xmlns:cc="http://creativecommons.org/ns#"
   xmlns:rdf="http://www.w3.org/1999/02/22-rdf-syntax-ns#"
   xmlns:svg="http://www.w3.org/2000/svg"
   xmlns="http://www.w3.org/2000/svg"
   xmlns:sodipodi="http://sodipodi.sourceforge.net/DTD/sodipodi-0.dtd"
   xmlns:inkscape="http://www.inkscape.org/namespaces/inkscape"
   width="6999.2607"
   height="7000.1763"
   viewBox="0 0 1851.8877 1852.13"
   version="1.1"
   id="svg5658"
   inkscape:version="1.0.2 (e86c870879, 2021-01-15, custom)"
   sodipodi:docname="middle_level.svg">
  <defs
     id="defs5652">
    <inkscape:path-effect
       effect="skeletal"
       id="path-effect2434"
       is_visible="true"
       lpeversion="1"
       pattern="m -125.49334,513.21886 c -9.01755,0 -16.27713,7.37525 -16.27713,16.53648 0,3.31493 0.95416,6.39329 2.59454,8.97576 h -30.63783 c 2.01871,-2.65783 3.22015,-5.99221 3.22015,-9.62396 0,-8.72099 -6.91089,-15.7415 -15.4951,-15.7415 h -61.74054 c -8.58422,0 -15.4951,7.02051 -15.4951,15.7415 0,8.72098 6.91088,15.74199 15.4951,15.74199 h 27.55355 c -2.2649,2.84008 -3.62116,6.46191 -3.62116,10.41843 0,9.16123 7.25959,16.53648 16.27713,16.53648 H 94.30151 c 9.01754,0 16.27712,-7.37525 16.27712,-16.53648 0,-3.31489 -0.95419,-6.39332 -2.59451,-8.97576 h 64.44378 c 9.01754,0 16.27712,-7.37524 16.27712,-16.53646 0,-9.16123 -7.25958,-16.53648 -16.27712,-16.53648 z m -393.88593,0.56194 c -8.19777,0 -14.79748,6.7044 -14.79748,15.03276 0,8.3284 6.59971,15.03326 14.79748,15.03326 h 63.13579 c 8.19776,0 14.79748,-6.70486 14.79748,-15.03326 0,-8.32836 -6.59972,-15.03276 -14.79748,-15.03276 z m -448.06514,1.5638 c -9.01755,0 -16.27761,7.37525 -16.27761,16.53646 0,5.87018 2.98359,11.00328 7.49744,13.93647 H -1063.01 c -9.0176,0 -16.2771,7.37525 -16.2771,16.53647 0,9.16123 7.2595,16.53696 16.2771,16.53696 h 297.92123 c 9.01755,0 16.27713,-7.37573 16.27713,-16.53696 0,-5.87054 -2.98357,-11.00338 -7.49792,-13.93647 h 47.17243 c -3.41429,3.02695 -5.56813,7.48074 -5.56813,12.46716 0,9.16122 7.25959,16.53646 16.27713,16.53646 h 146.98766 c 9.01755,0 16.27713,-7.37524 16.27713,-16.53646 0,-9.16122 -7.25958,-16.53647 -16.27713,-16.53647 h -107.37371 c 3.41429,-3.02692 5.56813,-7.48074 5.56813,-12.46716 0,-9.16121 -7.25958,-16.53646 -16.27712,-16.53646 z m -565.06499,2.94588 c -9.0176,0 -16.2771,7.37527 -16.2771,16.5365 0,3.12077 0.8439,6.0336 2.3112,8.51893 h -105.8931 c -9.0175,0 -16.277,7.37525 -16.277,16.53647 0,9.16123 7.2595,16.53647 16.277,16.53647 h 146.9876 c 9.0177,0 16.2773,-7.37524 16.2773,-16.53647 0,-3.12092 -0.8438,-6.03352 -2.3114,-8.51894 h 211.2046 c -2.3149,2.85526 -3.7023,6.51888 -3.7023,10.52356 1e-4,9.16123 7.2596,16.53647 16.2772,16.53647 h 146.9876 c 9.0176,0 16.2772,-7.37524 16.2772,-16.53647 0,-9.16123 -7.2596,-16.53647 -16.2772,-16.53647 h -101.3649 c 2.3148,-2.85526 3.7022,-6.51888 3.7022,-10.52355 0,-9.16123 -7.2596,-16.5365 -16.2771,-16.5365 z m -273.893,0.68356 c -8.1977,0 -14.7974,6.70486 -14.7974,15.03325 0,8.32838 6.5997,15.03325 14.7974,15.03325 h 39.6002 c -2.5841,2.70398 -4.1734,6.39508 -4.1734,10.47899 0,8.3284 6.5992,15.03326 14.797,15.03326 h 63.1359 c 8.1977,0 14.7973,-6.70486 14.7973,-15.03326 0,-8.32839 -6.5996,-15.03325 -14.7973,-15.03325 h -39.6007 c 2.5841,-2.70401 4.1739,-6.395 4.1739,-10.47899 0,-8.32839 -6.5998,-15.03325 -14.7976,-15.03325 z m 2015.86738,22.59153 c -9.01754,0 -16.27761,7.37524 -16.27761,16.5365 0,9.16121 7.26007,16.53645 16.27761,16.53645 h 146.98767 c 9.01754,0 16.27712,-7.37524 16.27712,-16.53645 0,-9.16126 -7.25958,-16.5365 -16.27712,-16.5365 z m -2118.81548,3.28356 c -8.1978,0 -14.797,6.70486 -14.797,15.03325 0,8.32839 6.5992,15.03325 14.797,15.03325 h 63.1358 c 8.1978,0 14.7975,-6.70486 14.7975,-15.03325 0,-8.32839 -6.5997,-15.03325 -14.7975,-15.03325 z m 1481.71538,3.00695 c -8.19778,0 -14.79748,6.70486 -14.79748,15.03322 0,8.32841 6.5997,15.03279 14.79748,15.03279 h 63.13531 c 8.19777,0 14.79748,-6.70438 14.79748,-15.03279 0,-8.32836 -6.59971,-15.03322 -14.79748,-15.03322 z"
       copytype="repeated_stretched"
       prop_scale="0.60639621"
       scale_y_rel="false"
       spacing="0"
       normal_offset="0"
       tang_offset="0"
       prop_units="false"
       vertical_pattern="false"
       hide_knot="false"
       fuse_tolerance="0" />
    <inkscape:path-effect
       effect="skeletal"
       id="path-effect2455"
       is_visible="true"
       lpeversion="1"
       pattern="m -1234.8527,574.87363 c -9.0168,0 -16.2758,7.21959 -16.2758,16.18686 0,8.96727 7.259,16.18637 16.2758,16.18637 h 297.89803 c 9.01683,0 16.27583,-7.2191 16.27583,-16.18637 0,-8.96727 -7.259,-16.18686 -16.27583,-16.18686 z m 556.33879,0 c -0.28177,0 -0.56148,0.007 -0.83966,0.0214 -1.94722,0.0975 -3.80217,0.53232 -5.50713,1.2471 -5.60201,2.34862 -9.58583,7.72004 -9.90806,14.0829 -0.014,0.27662 -0.0209,0.55529 -0.0209,0.83551 0,6.44523 3.75023,11.9869 9.20764,14.59454 2.13551,1.02037 4.53221,1.59184 7.0682,1.59184 h 297.89797 c 9.01683,0 16.27584,-7.21911 16.27584,-16.18638 0,-8.96726 -7.25901,-16.18686 -16.27584,-16.18686 z m 345.24599,0 c -9.01683,0 -16.2763,7.2191 -16.2763,16.18638 0,8.96727 7.25947,16.18636 16.2763,16.18636 h 297.897562 c 9.01682,0 16.27583,-7.21909 16.27583,-16.18636 0,-8.96728 -7.25901,-16.18638 -16.27583,-16.18638 z m -561.27089,1.47139 c -8.19711,0 -14.79629,6.56291 -14.79629,14.71499 0,8.15207 6.59918,14.71449 14.79629,14.71449 h 63.1303 c 8.19712,0 14.79631,-6.56242 14.79631,-14.71449 0,-8.15208 -6.59919,-14.71499 -14.79631,-14.71499 z m -677.17489,0.49031 c -9.0168,0 -16.2758,7.21909 -16.2758,16.18639 0,8.96727 7.259,16.18637 16.2758,16.18637 h 146.9761 c 9.0168,0 16.2758,-7.2191 16.2758,-16.18637 0,-8.9673 -7.259,-16.18639 -16.2758,-16.18639 z m 1575.0339019,0 c -8.1971,0 -14.7962799,6.5629 -14.7962799,14.71497 0,8.15208 6.5991799,14.71499 14.7962799,14.71499 H 66.450972 c 8.19712,0 14.79584,-6.56291 14.79584,-14.71499 0,-8.15207 -6.59872,-14.71497 -14.79584,-14.71497 z m 149.9665181,0.31675 c -9.01683,0 -16.27582,7.21911 -16.27582,16.18637 0,8.9673 7.25899,16.18641 16.27582,16.18641 h 146.97599 c 9.01683,0 16.27583,-7.21911 16.27583,-16.18641 0,-8.96726 -7.259,-16.18637 -16.27583,-16.18637 z m -2070.73942,1.64545 c -9.0168,0 -16.2758,7.2191 -16.2758,16.18637 0,8.96727 7.259,16.18638 16.2758,16.18638 h 297.8976 c 9.0168,0 16.2758,-7.21911 16.2758,-16.18638 0,-8.96727 -7.259,-16.18637 -16.2758,-16.18637 z"
       copytype="repeated_stretched"
       prop_scale="0.75858089"
       scale_y_rel="false"
       spacing="0"
       normal_offset="0"
       tang_offset="0"
       prop_units="false"
       vertical_pattern="false"
       hide_knot="false"
       fuse_tolerance="0" />
  </defs>
  <sodipodi:namedview
     id="base"
     pagecolor="#ffffff"
     bordercolor="#666666"
     borderopacity="1.0"
     inkscape:pageopacity="0.0"
     inkscape:pageshadow="2"
     inkscape:zoom="0.061871845"
     inkscape:cx="1309.615"
     inkscape:cy="3335.7079"
     inkscape:document-units="px"
     inkscape:current-layer="layer1"
     inkscape:document-rotation="0"
     showgrid="false"
     units="px"
     fit-margin-top="0"
     fit-margin-left="0"
     fit-margin-right="0"
     fit-margin-bottom="0"
     inkscape:window-width="1566"
     inkscape:window-height="1033"
     inkscape:window-x="96"
     inkscape:window-y="0"
     inkscape:window-maximized="0"
     inkscape:snap-center="true" />
  <metadata
     id="metadata5655">
    <rdf:RDF>
      <cc:Work
         rdf:about="">
        <dc:format>image/svg+xml</dc:format>
        <dc:type
           rdf:resource="http://purl.org/dc/dcmitype/StillImage" />
        <dc:title></dc:title>
      </cc:Work>
    </rdf:RDF>
  </metadata>
  <g
     inkscape:label="Layer 1"
     inkscape:groupmode="layer"
     id="layer1"
     transform="translate(974.32479,931.35668)">
    <path
       style="font-variation-settings:normal;opacity:0.9994;vector-effect:none;fill:#ffe6d5;fill-opacity:1;fill-rule:evenodd;stroke:none;stroke-width:4.92165;stroke-linecap:butt;stroke-linejoin:round;stroke-miterlimit:4;stroke-dasharray:none;stroke-dashoffset:0;stroke-opacity:1;paint-order:markers fill stroke;stop-color:#000000"
       id="rect2432"
       width="1709.0148"
       height="1736.2449"
       x="-902.88831"
       y="-873.41406"
       ry="939.6983"
       inkscape:path-effect="#path-effect2434"
       sodipodi:type="rect"
       d="m 505.66809,682.71443 c 8.37065,-6.94573 12.03595,-16.08255 8.39367,-20.27759 -1.31793,-1.51794 -3.39884,-2.18154 -5.89365,-2.0986 9.16623,-7.90134 18.16617,-15.99558 26.99131,-24.27606 -0.64163,2.81216 -0.31386,5.26569 1.18594,6.87842 3.60149,3.87269 12.62004,1.32884 20.04981,-5.88285 4.76253,-4.62274 9.4725,-9.29983 14.12858,-14.03021 12.75724,-12.962 25.10711,-26.3193 37.03167,-40.0436 6.78906,-7.81372 8.83253,-16.95579 4.76835,-20.33889 -4.06419,-3.3831 -12.53665,0.17349 -19.17881,7.81809 -7.10664,8.1792 -14.36734,16.2246 -21.77805,24.12981 0.57109,-3.12722 0.0421,-5.78954 -1.7163,-7.42159 -4.07158,-3.77899 -13.04884,-0.64705 -20.31791,6.84043 -1.3498,1.39035 -2.70442,2.77602 -4.06382,4.15695 -75.9917,77.201 -167.03003,139.67762 -266.56577,182.29688 l -2e-5,1e-5 c -4.27601,1.83184 -8.56784,3.62668 -12.87484,5.38443 -9.65539,3.9405 -15.91653,11.08838 -13.93767,16.27843 0.71603,1.87796 2.4268,3.2248 4.79366,3.99045 -23.62024,9.10565 -47.65422,17.13014 -72.00112,24.0603 -10.2205,2.90918 -17.38042,9.36908 -15.98129,14.74455 1.39913,5.37547 11.00776,7.51986 21.47086,4.54132 34.88411,-9.93052 69.14843,-22.05678 102.51661,-36.34262 C 369.51642,780.21 441.39287,736.04818 505.66809,682.71443 Z M 773.82703,297.63662 c 3.30199,-9.31207 1.93329,-18.14777 -2.85842,-19.73939 -4.79174,-1.59162 -11.08712,4.52664 -14.32143,13.64679 -5.03932,14.20994 -10.44965,28.28921 -16.2293,42.21816 -3.74333,9.02112 -7.64007,17.97835 -11.68726,26.867 -4.01065,8.80838 -3.73382,17.58459 0.81925,19.76957 4.55305,2.18498 11.67811,-3.2207 15.77329,-12.21464 4.1325,-9.0759 8.11163,-18.22223 11.93444,-27.4343 5.90095,-14.22661 11.42465,-28.60422 16.56943,-43.11319 z m 21.86183,-531.21789 c -2.72395,-10.50549 -9.42617,-17.69257 -14.77094,-16.18179 -3.42475,0.96805 -5.44928,5.21379 -5.76961,10.81484 -8.94506,-32.90655 -19.80319,-65.28975 -32.55475,-96.92142 -1.16724,-2.89547 -2.63976,-5.4713 -4.26808,-7.60755 -3.91758,-5.13969 -8.71372,-7.70164 -12.31994,-6.15327 -3.60622,1.54838 -5.04891,6.73633 -4.22689,13.01937 0.34171,2.60934 1.07555,5.41417 2.21497,8.23959 41.23831,102.25865 62.21627,212.71114 62.22119,323.079874 -1.8e-4,4.0799106 -0.029,8.1599356 -0.0865,12.239657 -0.14638,10.391994 4.00426,18.913371 9.55641,19.110796 3.55783,0.12651 6.80178,-3.254532 8.71614,-8.520483 -0.47458,18.500938 -1.52546,36.988018 -3.14948,55.424598 -1.47598,-4.164337 -3.97088,-6.895595 -6.98511,-7.138828 -5.53784,-0.446875 -10.64827,7.54549 -11.70739,17.896341 -5.75462,56.240295 -16.95447,111.919215 -33.50411,165.928255 -3.04592,9.94021 -1.44949,19.28343 3.82374,21.02716 5.27323,1.74374 12.22961,-4.97915 15.34711,-15.15247 12.37358,-40.37855 21.82392,-81.65408 28.31383,-123.39449 1.19468,4.26381 3.44376,7.21976 6.42818,7.7063 5.48307,0.89389 11.32585,-7.00662 12.84161,-17.75262 5.94959,-42.17982 8.94153,-84.7772 8.93983,-127.374216 0.003,-76.915482 -9.75428,-153.832154 -29.06022,-228.289644 z M 399.48728,-765.24128 c -9.26289,-5.62891 -19.06877,-6.09858 -21.84586,-1.28791 -0.94601,1.63876 -0.9611,3.66797 -0.22072,5.84177 -29.666,-17.25233 -60.37254,-32.71176 -91.92372,-46.22474 -6.77385,-2.90101 -13.58602,-5.71106 -20.43405,-8.42985 -9.89831,-3.92981 -19.50026,-2.69319 -21.43012,2.51516 -1.92986,5.20835 4.37147,12.287 14.03043,16.12267 6.68243,2.65365 13.3293,5.39633 19.93815,8.22771 45.30806,19.39922 88.85238,42.9297 130.00886,70.1023 8.6801,5.73083 18.09825,6.84312 21.262,2.2767 1.07778,-1.55563 1.27367,-3.57001 0.7082,-5.78863 44.69403,30.7558 86.46379,65.77445 124.52208,104.43899 19.93983,20.25713 38.86142,41.51296 56.69053,63.65036 -3.05358,-1.03129 -5.80166,-0.88446 -7.68514,0.64818 -4.30863,3.50619 -2.48096,12.80237 3.89636,21.00398 34.65026,44.5623 64.8631,92.59563 90.02261,143.12842 4.63056,9.30047 12.21826,14.97431 17.24481,12.6091 5.02655,-2.36521 5.44811,-12.027 0.70808,-21.54745 -17.76053,-35.67246 -37.97775,-70.12235 -60.44967,-103.03104 2.96937,1.27817 5.72883,1.39917 7.74109,0.0398 4.60333,-3.10973 3.44497,-12.85524 -2.81667,-21.69797 -27.36684,-38.64765 -57.82673,-75.10691 -91.05911,-108.87211 -50.5085,-51.31431 -107.38308,-96.33766 -168.90814,-133.72544 z M 92.470762,-878.32686 c -9.719097,-1.59703 -18.149026,1.32136 -18.865865,6.32059 -0.716838,4.99924 6.39449,10.10696 15.909998,11.67032 15.322025,2.51734 30.574755,5.45344 45.734815,8.80526 -3.32175,0.94472 -5.61137,2.74514 -6.13198,5.16609 -1.06169,4.93709 5.53898,10.49531 14.75094,12.67453 23.64882,5.59447 47.04869,12.22384 70.10481,19.8757 8.98097,2.98061 17.51382,1.7179 19.20382,-3.04026 1.68999,-4.75815 -4.28175,-11.21372 -13.46206,-14.26047 -14.78246,-4.906 -29.70136,-9.40059 -44.73329,-13.48072 3.37213,-0.78347 5.78669,-2.43198 6.4492,-4.81782 1.35104,-4.8654 -5.19747,-10.92342 -14.74018,-13.363 -24.49772,-6.26281 -49.26939,-11.45035 -74.220208,-15.55022 z M 143.05586,843.83397 c 10.39243,-2.38739 17.60951,-8.85541 16.24389,-14.23957 -1.36561,-5.38412 -10.58546,-7.6357 -20.7336,-5.30483 -55.138913,12.66454 -111.588844,19.71516 -168.153603,20.99542 -10.3542,0.23436 -18.702292,4.63685 -18.793467,10.15033 -5.01e-4,0.03 -7.52e-4,0.0601 -7.52e-4,0.0901 0,0.0301 2.51e-4,0.0601 7.52e-4,0.0901 0.0912,5.51351 8.643297,9.95965 19.247081,9.71976 57.928235,-1.31046 115.723534,-8.52974 172.189699,-21.50139 z M -30.924029,-873.96566 c -9.670097,-0.1989 -17.456891,3.88622 -17.456891,8.93652 0,5.05031 7.619298,9.09726 17.081945,9.29199 24.2923652,0.49992 48.565794,2.06452 72.725492,4.68142 9.41097,1.01936 17.487684,-2.0192 18.133977,-7.0281 0.646294,-5.00889 -6.554412,-10.057 -16.170464,-11.09863 -24.686184,-2.67405 -49.489135,-4.27258 -74.314059,-4.7832 z M 711.96743,389.9951 c 4.33832,-8.62138 4.00604,-17.39386 -0.54993,-19.57272 -4.556,-2.17887 -11.48885,2.93754 -15.73598,11.37758 -10.9031,21.66703 -22.73641,42.86889 -35.4511,63.52861 -4.9528,8.04765 -5.6657,16.63582 -1.41847,19.36831 4.24722,2.73247 11.88678,-1.59276 16.94546,-9.81243 12.98653,-21.10134 25.07281,-42.75679 36.21002,-64.88935 z M -602.42934,-693.29818 c -8.37066,6.94573 -12.03596,16.08255 -8.39369,20.27759 1.31793,1.51794 3.39884,2.18154 5.89366,2.09861 -9.16625,7.90133 -18.16619,15.99556 -26.99134,24.27603 0.64163,-2.81216 0.31386,-5.26568 -1.18593,-6.87842 -3.60149,-3.87269 -12.62004,-1.32885 -20.04982,5.88283 -4.76271,4.62292 -9.47287,9.30018 -14.12913,14.03075 -12.75706,12.96181 -25.10677,26.31893 -37.03117,40.04302 -6.78906,7.81371 -8.83255,16.95578 -4.76836,20.33889 4.06418,3.3831 12.53664,-0.17348 19.17881,-7.81808 7.10665,-8.17919 14.36736,-16.22459 21.77807,-24.1298 -0.57109,3.12723 -0.0421,5.78955 1.7163,7.4216 4.07157,3.77899 13.04883,0.64706 20.31792,-6.84041 1.34962,-1.39018 2.70407,-2.77567 4.0633,-4.15643 75.99171,-77.20099 167.03004,-139.67762 266.56579,-182.29688 4.27623,-1.83194 8.56829,-3.62687 12.87552,-5.38471 9.6554,-3.94049 15.91654,-11.08837 13.93769,-16.27842 -0.71603,-1.87796 -2.4268,-3.2248 -4.79366,-3.99045 23.62025,-9.10563 47.65424,-17.1301 72.00115,-24.06023 10.2205,-2.90918 17.38042,-9.36907 15.9813,-14.74454 -1.39913,-5.37548 -11.00776,-7.51988 -21.47086,-4.54134 -34.88436,9.93056 -69.14894,22.05688 -102.51735,36.34283 -76.82689,32.91239 -148.70313,77.07404 -212.9782,130.40756 z m -268.15927,385.07758 c -3.302,9.31207 -1.93331,18.14777 2.8584,19.73939 4.79174,1.59164 11.08712,-4.52662 14.32144,-13.64677 5.03925,-14.2097 10.44949,-28.28873 16.22905,-42.21745 3.74342,-9.02136 7.64027,-17.97881 11.68757,-26.86768 4.01066,-8.80838 3.73383,-17.58459 -0.81923,-19.76958 -4.55305,-2.18498 -11.67811,3.22069 -15.7733,12.21463 -4.13261,9.07613 -8.11185,18.22269 -11.93476,27.435 -5.90085,14.22637 -11.42447,28.60374 -16.56917,43.11246 z m -21.86228,531.21788 c 2.72394,10.50549 9.42615,17.69257 14.77093,16.1818 3.42474,-0.96805 5.44928,-5.21379 5.76961,-10.81484 8.94503,32.90656 19.80314,65.28977 32.55467,96.92145 1.16735,2.89575 2.64004,5.4718 4.26855,7.60817 3.91748,5.13928 8.71338,7.70097 12.31945,6.15266 3.60608,-1.54831 5.0488,-6.7359 4.227,-13.01861 -0.34166,-2.60955 -1.07553,-5.41465 -2.21506,-8.24034 -41.23812,-102.25846 -62.21599,-212.71071 -62.22091,-323.079196 1.8e-4,-4.0801555 0.029,-8.160425 0.0865,-12.240392 0.14639,-10.391993 -4.00424,-18.913374 -9.55639,-19.110803 -3.55783,-0.126513 -6.80179,3.254525 -8.71616,8.520474 0.47461,-18.500937 1.5255,-36.988015 3.14953,-55.424594 1.47598,4.164337 3.97088,6.895597 6.98511,7.138833 5.53784,0.44688 10.64827,-7.54548 11.7074,-17.896331 5.75467,-56.240291 16.95457,-111.919201 33.50426,-165.928221 3.04592,-9.94021 1.44951,-19.28343 -3.82373,-21.02717 -5.27323,-1.74374 -12.22961,4.97914 -15.34712,15.15246 -12.37361,40.37854 -21.82399,81.65406 -28.31393,123.39447 -1.19469,-4.26382 -3.44376,-7.21977 -6.42818,-7.70631 -5.48307,-0.8939 -11.32585,7.00661 -12.84162,17.75261 -5.94967,42.180067 -8.94164,84.777702 -8.93994,127.374974 -0.003,76.915227 9.75422,153.831636 29.06003,228.288906 z m 396.20111,531.66035 c 9.26289,5.62892 19.06877,6.0986 21.84586,1.28793 0.94602,-1.63876 0.9611,-3.66797 0.22073,-5.84177 29.6662,17.25248 60.37296,32.71204 91.92437,46.22512 6.77362,2.90091 13.58556,5.71087 20.43335,8.42957 9.89831,3.92982 19.50026,2.69321 21.43012,-2.51514 1.92986,-5.20835 -4.37146,-12.28701 -14.03041,-16.12268 -6.6822,-2.65357 -13.32885,-5.39616 -19.93747,-8.22745 -45.30829,-19.39931 -88.85282,-42.92992 -130.00948,-70.1027 -8.68009,-5.73083 -18.09824,-6.84313 -21.26199,-2.27671 -1.07778,1.55562 -1.27367,3.57 -0.70821,5.78863 -44.6938,-30.7557 -86.46334,-65.77421 -124.52147,-104.43857 -19.93999,-20.25731 -38.86174,-41.51334 -56.69099,-63.65095 3.05358,1.0313 5.80166,0.88447 7.68514,-0.64817 4.30863,-3.50619 2.48097,-12.80236 -3.89634,-21.00398 -34.65022,-44.56234 -64.86302,-92.59569 -90.02249,-143.1285 -4.63055,-9.30047 -12.21825,-14.97432 -17.2448,-12.60912 -5.02655,2.36521 -5.44811,12.027 -0.7081,21.54746 17.7605,35.67247 37.97769,70.12238 60.44958,103.03109 -2.96936,-1.27817 -5.72882,-1.39918 -7.74109,-0.0398 -4.60332,3.10973 -3.44497,12.85524 2.81666,21.69798 27.36695,38.64788 57.82699,75.10735 91.05955,108.87273 50.50832,51.31413 107.38267,96.33733 168.90748,133.72504 z m 307.01642,113.08586 c 9.7191,1.59703 18.14903,-1.32135 18.86587,-6.32058 0.71684,-4.99924 -6.39448,-10.10697 -15.90999,-11.67033 -15.32202,-2.51735 -30.57475,-5.45347 -45.7348,-8.8053 3.32175,-0.94472 5.61137,-2.74514 6.13198,-5.16609 1.0617,-4.93709 -5.53897,-10.49531 -14.75092,-12.67454 -23.64882,-5.59449 -47.04869,-12.22388 -70.1048,-19.87577 -8.98097,-2.98061 -17.51382,-1.71791 -19.20382,3.04025 -1.69,4.75814 4.28174,11.21372 13.46204,14.26048 14.78246,4.90601 29.70135,9.40062 44.73329,13.48076 -3.37214,0.78347 -5.7867,2.43198 -6.44921,4.81782 -1.35105,4.8654 5.19746,10.92342 14.74017,13.36301 24.49771,6.26283 49.26937,11.45039 74.22019,15.55029 z m -50.58361,-1722.16088 c -10.39242,2.38738 -17.60951,8.85539 -16.2439,14.23955 1.36561,5.38413 10.58546,7.63571 20.7336,5.30485 55.13892,-12.66449 111.58886,-19.71506 168.153618,-20.99527 10.410567,-0.23562 18.794212,-4.68513 18.794222,-10.24045 10e-6,-5.55535 -8.586308,-10.0511 -19.247818,-9.80992 -57.928232,1.31041 -115.723542,8.52964 -172.189722,21.50124 z M -65.838563,863.38239 c 9.670096,0.19891 17.456894,-3.8862 17.456898,-8.9365 5e-6,-5.05031 -7.61929,-9.09727 -17.081937,-9.29201 -24.292365,-0.49993 -48.565788,-2.06456 -72.725488,-4.68148 -9.41097,-1.01937 -17.48769,2.01919 -18.13398,7.02808 -0.6463,5.00889 6.5544,10.05701 16.17045,11.09865 24.68618,2.67407 49.489133,4.27262 74.314057,4.78326 z M -808.72893,-400.57902 c -4.33833,8.62137 -4.00606,17.39385 0.54991,19.57271 4.556,2.17888 11.48885,-2.93752 15.73599,-11.37756 10.90312,-21.66702 22.73644,-42.86887 35.45116,-63.52858 4.95281,-8.04764 5.66571,-16.63581 1.41848,-19.3683 -4.24721,-2.73248 -11.88678,1.59274 -16.94547,9.81241 -12.98655,21.10133 -25.07284,42.75676 -36.21007,64.88932 z" />
  </g>
</svg>
