<?xml version="1.0" encoding="UTF-8" standalone="no"?>
<svg
   xmlns:dc="http://purl.org/dc/elements/1.1/"
   xmlns:cc="http://creativecommons.org/ns#"
   xmlns:rdf="http://www.w3.org/1999/02/22-rdf-syntax-ns#"
   xmlns:svg="http://www.w3.org/2000/svg"
   xmlns="http://www.w3.org/2000/svg"
   xmlns:sodipodi="http://sodipodi.sourceforge.net/DTD/sodipodi-0.dtd"
   xmlns:inkscape="http://www.inkscape.org/namespaces/inkscape"
   width="320"
   height="320"
   viewBox="0 0 84.666665 84.666669"
   version="1.1"
   id="svg8"
   inkscape:version="1.0.2 (e86c870879, 2021-01-15, custom)"
   sodipodi:docname="lock.svg">
  <defs
     id="defs2" />
  <sodipodi:namedview
     id="base"
     pagecolor="#ffffff"
     bordercolor="#666666"
     borderopacity="1.0"
     inkscape:pageopacity="0.0"
     inkscape:pageshadow="2"
     inkscape:zoom="0.12374369"
     inkscape:cx="-1349.5079"
     inkscape:cy="624.47228"
     inkscape:document-units="mm"
     inkscape:current-layer="layer1"
     inkscape:document-rotation="0"
     showgrid="false"
     units="px"
     inkscape:window-width="1566"
     inkscape:window-height="1033"
     inkscape:window-x="32"
     inkscape:window-y="0"
     inkscape:window-maximized="0" />
  <metadata
     id="metadata5">
    <rdf:RDF>
      <cc:Work
         rdf:about="">
        <dc:format>image/svg+xml</dc:format>
        <dc:type
           rdf:resource="http://purl.org/dc/dcmitype/StillImage" />
        <dc:title></dc:title>
      </cc:Work>
    </rdf:RDF>
  </metadata>
  <g
     inkscape:label="Layer 1"
     inkscape:groupmode="layer"
     id="layer1">
    <path
       id="rect833"
       style="opacity:0.998642;fill:#000000;stroke-width:0.615937;stroke-linecap:round;stroke-linejoin:round;paint-order:markers fill stroke;stop-color:#000000"
       d="m 39.609468,4.9706087 c -11.621635,0 -20.978048,9.3558963 -20.978048,20.9775293 v 5.820833 c 0,0.247512 0.0061,0.493585 0.01447,0.738973 -3.007921,0.04329 -5.416727,2.477207 -5.416727,5.49579 v 36.575545 c 0,3.045798 2.452055,5.497853 5.497856,5.497853 h 47.21262 c 3.045801,0 5.497857,-2.452055 5.497857,-5.497853 V 38.003734 c 0,-2.944294 -2.291509,-5.333076 -5.195549,-5.489072 0.0086,-0.247608 0.01447,-0.495919 0.01447,-0.745691 v -5.820833 c 0,-11.621633 -9.355896,-20.9775293 -20.977531,-20.9775293 z m 0.698664,6.7938993 h 5.035352 c 8.865703,0 14.527752,6.611937 14.132472,15.468822 L 59.24031,32.505878 H 26.682609 l -0.774113,-5.00538 c -1.354439,-8.761632 5.533935,-15.73599 14.399636,-15.73599 z" />
    <path
       sodipodi:type="star"
       style="opacity:0.998642;fill:#ffffff;stroke-width:0.645999;stroke-linecap:round;stroke-linejoin:round;paint-order:markers fill stroke;stop-color:#000000"
       id="path860"
       sodipodi:sides="3"
       sodipodi:cx="87.397133"
       sodipodi:cy="122.94398"
       sodipodi:r1="5.271379"
       sodipodi:r2="2.5694599"
       sodipodi:arg1="0.53172407"
       sodipodi:arg2="1.5789216"
       inkscape:flatsided="false"
       inkscape:rounded="3.1225e-17"
       inkscape:randomized="0"
       d="m 91.940715,125.61667 -4.564459,-0.10332 -4.565536,0.0291 2.371707,-3.90128 2.257537,-3.96844 2.192752,4.0046 z"
       inkscape:transform-center-x="0.021416537"
       inkscape:transform-center-y="-2.0970146"
       transform="matrix(1,0,0,1.6140144,-44.979167,-139.11854)" />
    <rect
       style="opacity:0.998642;fill:#ffffff;stroke-width:0.648557;stroke-linecap:round;stroke-linejoin:round;paint-order:markers fill stroke;stop-color:#000000"
       id="rect862"
       width="7.9375"
       height="7.9375"
       x="38.585392"
       y="50.085796"
       ry="8.9535294" />
  </g>
</svg>
