<?xml version="1.0" encoding="UTF-8" standalone="no"?>
<svg
   xmlns:dc="http://purl.org/dc/elements/1.1/"
   xmlns:cc="http://creativecommons.org/ns#"
   xmlns:rdf="http://www.w3.org/1999/02/22-rdf-syntax-ns#"
   xmlns:svg="http://www.w3.org/2000/svg"
   xmlns="http://www.w3.org/2000/svg"
   xmlns:sodipodi="http://sodipodi.sourceforge.net/DTD/sodipodi-0.dtd"
   xmlns:inkscape="http://www.inkscape.org/namespaces/inkscape"
   width="110.45781mm"
   height="146.99451mm"
   viewBox="0 0 110.45781 146.99451"
   version="1.1"
   id="svg8"
   inkscape:version="1.0.2 (e86c870879, 2021-01-15, custom)"
   sodipodi:docname="click_hint.svg">
  <defs
     id="defs2">
    <rect
       x="32.823742"
       y="187.77515"
       width="111.56316"
       height="46.570087"
       id="rect843" />
  </defs>
  <sodipodi:namedview
     id="base"
     pagecolor="#ffffff"
     bordercolor="#666666"
     borderopacity="1.0"
     inkscape:pageopacity="0.0"
     inkscape:pageshadow="2"
     inkscape:zoom="0.24748737"
     inkscape:cx="-51.093999"
     inkscape:cy="781.01149"
     inkscape:document-units="mm"
     inkscape:current-layer="layer1"
     inkscape:document-rotation="0"
     showgrid="false"
     fit-margin-top="0"
     fit-margin-left="0"
     fit-margin-right="0"
     fit-margin-bottom="0"
     inkscape:window-width="1920"
     inkscape:window-height="1051"
     inkscape:window-x="-9"
     inkscape:window-y="-9"
     inkscape:window-maximized="1" />
  <metadata
     id="metadata5">
    <rdf:RDF>
      <cc:Work
         rdf:about="">
        <dc:format>image/svg+xml</dc:format>
        <dc:type
           rdf:resource="http://purl.org/dc/dcmitype/StillImage" />
        <dc:title />
      </cc:Work>
    </rdf:RDF>
  </metadata>
  <g
     inkscape:label="Layer 1"
     inkscape:groupmode="layer"
     id="layer1"
     transform="translate(-95.556454,-5.0663398)">
    <path
       id="path837"
       style="opacity:0.998642;fill:#313140;stroke-width:2.44157;stroke-linecap:round;stroke-linejoin:round;paint-order:markers fill stroke;stop-color:#000000;fill-opacity:1"
       d="M 297.16797 0 C 285.4362 0.52340031 273.53087 0.52339236 262.11133 3.53125 C 254.25312 6.2526724 246.53838 9.2285951 239.11523 12.982422 C 236.2005 15.074205 232.45041 15.606707 229.37891 17.339844 C 226.42857 19.004587 223.48524 20.680919 220.54492 22.363281 C 216.69021 24.139309 212.60261 25.111113 208.79688 27.136719 C 196.05941 34.51145 183.3234 41.885034 170.58594 49.259766 L 209.99414 33.935547 C 200.84477 39.170765 191.69621 44.40541 182.54688 49.640625 C 184.77564 48.947791 187.55295 49.420292 189.58398 48.001953 C 193.31884 45.832095 197.05629 43.664788 200.79297 41.498047 C 201.5112 41.258134 202.23466 41.031635 202.95117 40.787109 C 204.11039 40.294478 205.26848 39.801225 206.42773 39.308594 C 213.64259 35.119464 221.22161 31.907702 229.13477 29.269531 C 239.90169 24.30234 252.39776 25.278208 263.96289 24.128906 C 279.42702 24.030601 294.89119 24.121539 310.35547 24.146484 C 322.93869 24.333269 335.54389 24.41271 348.08984 25.498047 C 354.08527 26.121259 360.0431 26.977022 365.99609 27.863281 C 361.1861 30.941006 356.27008 34.243142 350.8125 37.583984 C 339.26551 44.137477 327.8867 50.96401 316.94141 58.501953 C 310.71607 62.550545 304.43761 66.520033 298.86719 71.476562 C 298.39025 71.895275 297.55341 72.522669 296.70312 73.148438 C 285.17761 79.660124 275.43257 85.970812 264.92383 96.697266 C 257.30037 103.58247 249.53385 110.27822 241.68555 116.9043 C 233.42856 124.57096 225.42361 132.4894 217.5625 140.56055 C 209.18404 148.95756 201.00993 157.59143 193.03906 166.36719 C 186.67139 174.32079 180.23586 182.25905 174.80078 190.89648 C 169.50188 199.66578 164.95305 208.88433 159.07422 217.29688 C 153.71995 225.93158 150.16782 235.45748 145.07227 244.25195 C 139.19922 256.09488 132.9479 267.76301 127.72656 279.91211 C 123.18062 289.85431 117.94742 299.55841 114.82031 310.07812 C 111.8572 321.19681 108.24054 332.13474 104.85938 343.13086 C 99.703381 357.51468 94.60397 371.99531 91.808594 387.06055 C 90.633652 400.51975 89.814573 414.01902 88.980469 427.50195 L 126.57812 408.34375 C 126.38461 395.16212 127.25651 381.88414 128.57617 368.75977 C 131.56457 353.92805 137.07039 339.85753 142.22461 325.69727 C 145.31573 314.40494 149.59949 303.46883 152.4082 292.10156 C 156.16237 282.04998 160.97766 272.45709 165.40625 262.69922 C 170.68784 250.69457 176.63645 238.94919 182.63672 227.27344 C 187.12479 221.3166 188.94708 213.88233 192.58594 207.50781 C 193.99895 205.03249 195.84087 202.82536 197.3418 200.40234 C 203.0928 192.02132 207.33331 182.73488 212.75391 174.13086 C 218.27103 165.55167 225.3348 158.13835 231.30078 149.91406 C 239.70195 141.74854 247.31647 132.80847 255.83594 124.76953 C 263.61439 116.63134 271.74149 108.86346 279.99023 101.20508 C 288.23898 94.929675 295.80781 87.907957 303.47266 80.955078 C 306.96116 78.109301 309.61328 74.560084 313.19531 71.845703 C 338.80782 57.728121 324.18162 67.641859 337.93359 55.59375 C 343.47763 50.726901 350.11088 47.528609 355.96484 43.128906 C 357.06601 42.449397 358.17325 41.780229 359.26758 41.089844 C 365.34628 39.825047 370.5307 36.501659 376.06445 33.859375 C 376.06497 33.859215 376.06589 33.859535 376.06641 33.859375 C 372.14159 41.209744 368.25134 48.567232 364.42578 55.988281 C 360.52315 63.083301 358.8051 70.730667 358.05078 78.699219 C 357.56647 85.188649 357.59622 91.700176 357.60938 98.203125 C 358.28742 103.70993 357.0229 108.86818 356.19727 114.23242 C 355.30832 120.33643 355.00789 126.50283 354.93555 132.66406 C 354.87054 139.31346 354.7989 145.96373 354.85938 152.61328 C 354.88583 159.17968 354.85679 165.7461 354.83789 172.3125 C 354.3811 178.54562 355.75005 184.59518 356.67773 190.70898 C 358.01433 196.4369 360.5061 201.75386 361.95898 207.44727 C 363.24028 210.91876 362.61621 209.23152 363.83594 212.50977 L 400.75977 191.98438 C 399.56695 188.87216 400.15102 190.422 399.00586 187.33594 C 397.47024 181.82421 395.10279 176.58939 393.9707 170.96484 C 393.00144 165.0633 391.8131 159.21568 392.36328 153.18945 C 392.3406 146.63564 392.29732 140.08123 392.31055 133.52734 C 392.36346 126.9089 392.26629 120.28881 392.46094 113.67188 C 392.71908 107.66927 392.99076 101.64807 394.11328 95.730469 C 395.192 90.20147 395.42938 84.695323 395.14648 79.0625 C 395.12003 72.723673 395.06142 66.367611 395.67578 60.050781 C 396.64542 52.580511 398.79451 45.477415 402.42773 38.833984 C 406.25405 31.278542 410.47103 23.960691 414.80664 16.6875 L 400.70508 22.939453 C 412.70501 16.411483 422.32939 9.0260939 414.82617 6.1328125 C 415.1566 5.8808364 415.48393 5.6402994 415.80859 5.4140625 C 416.19243 5.1465909 415.11825 5.8285191 414.60938 6.0644531 C 413.76108 5.7582757 412.728 5.5003323 411.45312 5.3085938 C 401.61793 4.0714334 391.81066 2.6085039 381.96484 1.453125 C 369.20569 0.19346516 356.37875 0.06996813 343.57031 0.0546875 C 328.10278 -0.071170768 312.63542 0.076459843 297.16797 0 z M 182.54688 49.640625 C 182.40311 49.685315 182.25401 49.720048 182.11523 49.775391 C 181.70831 49.937673 181.36765 50.216059 181.0332 50.507812 C 181.53793 50.21901 182.04215 49.929427 182.54688 49.640625 z M 181.0332 50.507812 C 179.28394 51.508734 177.53442 52.508844 175.78516 53.509766 C 177.93888 52.531858 178.21552 52.512093 180.17773 51.203125 C 180.48078 51.000974 180.75511 50.750403 181.0332 50.507812 z M 328.45312 62.148438 C 328.41317 62.234985 325.43088 64.087448 318.26172 68.359375 C 323.26425 65.100655 328.51011 62.025002 328.45312 62.148438 z M 328.76562 62.539062 C 325.79877 64.26565 320.26412 67.461853 315.39648 70.277344 C 315.56032 70.165088 315.70618 70.058443 315.87305 69.945312 C 319.30993 67.947952 322.74671 65.950485 326.18359 63.953125 C 327.04427 63.481754 329.61375 62.045483 328.76562 62.539062 z "
       transform="matrix(0.26458333,0,0,0.26458333,95.556454,5.0663398)" />
    <text
       xml:space="preserve"
       id="text841"
       style="font-size:38.1px;line-height:1.25;font-family:'Gloria Hallelujah';-inkscape-font-specification:'Gloria Hallelujah, Normal';white-space:pre;shape-inside:url(#rect843);fill:#313140;fill-opacity:1;"
       transform="translate(61.988095,-68.035714)"><tspan
         x="32.824219"
         y="219.54572"><tspan
           style="font-size:38.1px;fill:#313140;fill-opacity:1">Click</tspan></tspan></text>
  </g>
</svg>
